<svg xmlns="http://www.w3.org/2000/svg" xmlns:xlink="http://www.w3.org/1999/xlink" viewBox="0 0 586.75 349.61"><defs><style>.cls-1{mask:url(#mask);filter:url(#luminosity-noclip-2);}.cls-19,.cls-2{mix-blend-mode:multiply;}.cls-2{fill:url(#linear-gradient);}.cls-3{isolation:isolate;}.cls-4{mask:url(#mask-2);}.cls-5{fill:url(#linear-gradient-2);}.cls-6{fill:#fff;}.cls-7{fill:#71c5c9;}.cls-8{fill:#25356c;}.cls-9{fill:#fefeff;}.cls-10{fill:#496fc1;}.cls-11{fill:#8cc8e1;}.cls-11,.cls-18,.cls-19,.cls-32,.cls-43,.cls-51{opacity:0.5;}.cls-12{fill:#3cc2fa;}.cls-13{fill:#e2e2e3;}.cls-14{fill:#549b9b;}.cls-15{fill:#a9ebf4;}.cls-16{fill:#589999;}.cls-17{fill:#bfd5f7;}.cls-18,.cls-25,.cls-26,.cls-32,.cls-33,.cls-36,.cls-43,.cls-51{mix-blend-mode:screen;}.cls-18{fill:url(#White_Black);}.cls-19{fill:#7f8b8c;}.cls-20{fill:#ccc0c9;}.cls-21{fill:#dedede;}.cls-22{fill:#b8adb5;}.cls-23{fill:#c7d5e4;}.cls-24{fill:#16223f;}.cls-25,.cls-26{opacity:0.3;}.cls-25{fill:url(#White_Black-2);}.cls-26{fill:url(#White_Black-3);}.cls-27{fill:#8a8b8c;}.cls-28{fill:#aaabad;}.cls-29{fill:#dedfe0;}.cls-30,.cls-37,.cls-39,.cls-40,.cls-46,.cls-47{opacity:0.97;}.cls-31{fill:#7ea8c4;}.cls-32{fill:url(#White_Black-4);}.cls-33,.cls-36{opacity:0.6;}.cls-33{fill:url(#White_Black-5);}.cls-34{fill:#f1f2f2;}.cls-35{fill:#92bbf7;}.cls-36{fill:url(#White_Black-6);}.cls-37{fill:url(#linear-gradient-3);}.cls-38{fill:#1782e8;}.cls-39{fill:url(#linear-gradient-4);}.cls-40{fill:url(#linear-gradient-5);}.cls-41{fill:#d4eaff;}.cls-42{fill:#b0bbd9;}.cls-43{fill:url(#White_Black-7);}.cls-44{fill:#e5e5e4;}.cls-45{fill:url(#linear-gradient-6);}.cls-46{fill:url(#linear-gradient-7);}.cls-47{fill:url(#linear-gradient-8);}.cls-48{fill:url(#linear-gradient-9);}.cls-49{fill:#0abce2;}.cls-50{fill:#0890ad;}.cls-51{fill:url(#White_Black-8);}.cls-52{filter:url(#luminosity-noclip);}</style><filter id="luminosity-noclip" x="118.57" y="-8095.87" width="335.7" height="32766" filterUnits="userSpaceOnUse" color-interpolation-filters="sRGB"><feFlood flood-color="#fff" result="bg"/><feBlend in="SourceGraphic" in2="bg"/></filter><mask id="mask" x="118.57" y="-8095.87" width="335.7" height="32766" maskUnits="userSpaceOnUse"><g class="cls-52"/></mask><linearGradient id="linear-gradient" x1="329.42" y1="-1.97" x2="247.89" y2="308.46" gradientUnits="userSpaceOnUse"><stop offset="0" stop-color="#fff"/><stop offset="0.09" stop-color="#f0f0f0"/><stop offset="0.28" stop-color="#c8c8c8"/><stop offset="0.53" stop-color="#888"/><stop offset="0.84" stop-color="#313131"/><stop offset="1"/></linearGradient><filter id="luminosity-noclip-2" x="118.57" y="0" width="335.7" height="249.52" filterUnits="userSpaceOnUse" color-interpolation-filters="sRGB"><feFlood flood-color="#fff" result="bg"/><feBlend in="SourceGraphic" in2="bg"/></filter><mask id="mask-2" x="118.57" y="0" width="335.7" height="249.52" maskUnits="userSpaceOnUse"><g class="cls-1"><path class="cls-2" d="M427.44,249.52a156.84,156.84,0,0,0,26.83-87.76C454.27,72.42,379.12,0,286.42,0S118.57,72.42,118.57,161.76a156.84,156.84,0,0,0,26.83,87.76Z"/></g></mask><linearGradient id="linear-gradient-2" x1="170.95" y1="275.07" x2="401.89" y2="44.12" gradientUnits="userSpaceOnUse"><stop offset="0.15" stop-color="#25356c"/><stop offset="1" stop-color="#ea5178"/></linearGradient><linearGradient id="White_Black" x1="233.38" y1="151.14" x2="233.38" y2="264.04" gradientUnits="userSpaceOnUse"><stop offset="0" stop-color="#fff"/><stop offset="1"/></linearGradient><linearGradient id="White_Black-2" x1="334.61" y1="122.99" x2="334.61" y2="195.36" xlink:href="#White_Black"/><linearGradient id="White_Black-3" x1="350.51" y1="205.01" x2="350.51" y2="208.34" xlink:href="#White_Black"/><linearGradient id="White_Black-4" x1="308.57" y1="188.52" x2="308.57" y2="344.65" xlink:href="#White_Black"/><linearGradient id="White_Black-5" x1="481.78" y1="241.15" x2="481.78" y2="287.49" xlink:href="#White_Black"/><linearGradient id="White_Black-6" x1="366.86" y1="202.87" x2="366.86" y2="299.22" xlink:href="#White_Black"/><linearGradient id="linear-gradient-3" x1="386.97" y1="274.37" x2="418.87" y2="242.46" xlink:href="#linear-gradient-2"/><linearGradient id="linear-gradient-4" x1="386.97" y1="310.53" x2="418.87" y2="278.63" xlink:href="#linear-gradient-2"/><linearGradient id="linear-gradient-5" x1="386.97" y1="346.7" x2="418.87" y2="314.8" xlink:href="#linear-gradient-2"/><linearGradient id="White_Black-7" x1="186.7" y1="207.74" x2="186.7" y2="393.94" xlink:href="#White_Black"/><linearGradient id="linear-gradient-6" x1="215.9" y1="331.8" x2="262.24" y2="285.46" xlink:href="#linear-gradient-2"/><linearGradient id="linear-gradient-7" x1="458.54" y1="333.54" x2="515.91" y2="333.54" xlink:href="#linear-gradient-2"/><linearGradient id="linear-gradient-8" x1="512.16" y1="343.76" x2="532.6" y2="323.31" xlink:href="#linear-gradient-2"/><linearGradient id="linear-gradient-9" x1="299.21" y1="326.79" x2="357.05" y2="326.79" xlink:href="#linear-gradient-2"/><linearGradient id="White_Black-8" x1="175.48" y1="297.87" x2="175.48" y2="348.43" xlink:href="#White_Black"/></defs><g class="cls-3"><g id="Layer_2" data-name="Layer 2"><g id="Skyline"><g class="cls-4"><path class="cls-5" d="M427.44,249.52a156.84,156.84,0,0,0,26.83-87.76C454.27,72.42,379.12,0,286.42,0S118.57,72.42,118.57,161.76a156.84,156.84,0,0,0,26.83,87.76Z"/></g><polygon class="cls-6" points="98.8 230.79 97.59 230.79 97.59 197.95 98.8 195.08 98.8 230.79"/><polygon class="cls-7" points="98.8 230.79 100.02 230.79 100.02 197.95 98.8 195.08 98.8 230.79"/><polygon class="cls-6" points="114.21 230.79 112.99 230.79 112.99 215.18 114.21 212.31 114.21 230.79"/><polygon class="cls-7" points="114.21 230.79 115.42 230.79 115.42 215.18 114.21 212.31 114.21 230.79"/><rect class="cls-6" x="86.03" y="233.32" width="33.58" height="111.79"/><rect class="cls-6" x="85.41" y="230.76" width="34.83" height="2.56" transform="translate(205.65 464.08) rotate(180)"/><rect class="cls-7" x="94.01" y="233.32" width="28.96" height="111.79"/><rect class="cls-7" x="93.38" y="230.76" width="30.2" height="2.56" transform="translate(216.97 464.08) rotate(180)"/><path class="cls-8" d="M120.59,244.88H96.39v1.23h24.2Zm0,4.41H96.39v1.24h24.2Zm0-2.2H96.39v1.23h24.2Zm-24.2-4.42v1.24h24.2v-1.24Zm24.2,13.24H96.39v1.23h24.2Zm0,2.2H96.39v1.24h24.2Zm0-4.41H96.39v1.24h24.2Zm0-2.2H96.39v1.23h24.2Zm0,12.67H96.39v1.24h24.2Zm0,4.42H96.39v1.23h24.2Zm0-2.21H96.39v1.24h24.2Zm0-4.41H96.39v1.23h24.2Zm0,13.23H96.39v1.24h24.2Zm0,2.21H96.39v1.23h24.2Zm0-4.41H96.39v1.23h24.2Zm0-2.21H96.39V272h24.2Zm0,12.68H96.39v1.23h24.2Zm0,4.41H96.39v1.24h24.2Zm0-2.21H96.39v1.24h24.2Zm0-4.41H96.39v1.24h24.2Zm0,13.24H96.39v1.23h24.2Zm0,2.2H96.39v1.24h24.2Zm0-4.41H96.39v1.24h24.2Zm0-2.2H96.39v1.23h24.2Z"/><path class="cls-8" d="M411.69,284h-49c0-68.15,8-129.39,20.62-171.66,1.51-5.06,6.21-5.06,7.72,0C403.73,154.63,411.69,215.87,411.69,284Z"/><path class="cls-9" d="M387.21,108.57V284H362.73c0-68.15,8-129.39,20.62-171.66C384.11,109.83,385.66,108.57,387.21,108.57Z"/><path class="cls-10" d="M399.55,284H374.87c0-68.15,4-129.39,10.39-171.66.77-5.06,3.13-5.06,3.9,0C395.54,154.63,399.55,215.87,399.55,284Z"/><path class="cls-8" d="M376.22,140.53h22c-.12-.6-.25-1.19-.38-1.78H376.6C376.47,139.34,376.34,139.93,376.22,140.53Zm-.75,3.55H399l-.36-1.78H375.84C375.71,142.89,375.59,143.49,375.47,144.08Z"/><path class="cls-9" d="M375.71,282.4l1.62,1.62h.86l-2.06-2,3.41-3.41L383,282l-2.05,2h.85l1.63-1.62L385,284h.85l-2.05-2,3.41-3.41,3.41,3.41-2.05,2h.85l1.63-1.62,1.62,1.62h.85l-2-2,3.41-3.41,3.41,3.41-2.05,2h.85l1.62-1.62.84.83v-.85l-.41-.41.41-.41v-.85l-.84.83-3.4-3.41,3.4-3.4.82.81c0-.29,0-.57,0-.86l-.38-.38.38-.38c0-.28,0-.57,0-.85l-.8.8-3.4-3.41,3.4-3.4.76.75V267l-.33-.32.32-.32c0-.28,0-.56,0-.84l-.74.73-3.4-3.4,3.4-3.41.67.67c0-.29,0-.58,0-.87l-.23-.23.23-.22c0-.28,0-.56,0-.84l-.64.63-3.4-3.4,3.4-3.41.55.54c0-.29,0-.58,0-.87l-.1-.1.1-.09c0-.28,0-.56,0-.84l-.51.5-3.4-3.4,3.4-3.41.38.37c0-.52,0-1,0-1.56l-.34.34-3.4-3.41,3.4-3.41.18.17c0-.39,0-.78,0-1.16l-.14.14-3.4-3.41,3.34-3.34c0-.34,0-.68,0-1l-3.3-3.3,3.07-3.08-.06-1.58-3-3,2.77-2.77c0-.28,0-.55,0-.82l-3.16,3.16-3.41-3.4,3.41-3.41,3.14,3.14c0-.3,0-.6,0-.89l-2.67-2.68,2.44-2.44c0-.27,0-.54,0-.81l-2.83,2.82-3.41-3.4,3.41-3.41,2.77,2.76c0-.3,0-.59,0-.9l-2.29-2.29,2.07-2.07c0-.27,0-.54-.05-.81L394.88,201l-3.41-3.4,3.41-3.41,2.34,2.34c0-.3,0-.61-.05-.91l-1.86-1.86,1.65-1.66c0-.26,0-.53,0-.8l-2,2-3.41-3.41,3.41-3.41,1.86,1.86-.06-.91-1.37-1.38,1.21-1.21c0-.26,0-.53,0-.8l-1.59,1.59-3.41-3.41,3.41-3.41,1.32,1.32-.06-.91-.83-.84.72-.72c0-.27,0-.53,0-.8l-1.1,1.1-3.41-3.41,3.41-3.41.73.73c0-.31-.05-.61-.07-.92l-.23-.24.2-.19c0-.27-.05-.53-.07-.8l-.56.57-3.41-3.41,3.41-3.41.07.07c0-.31-.05-.62-.08-.93l-3.4-3.4,2.86-2.85c0-.26-.05-.52-.08-.78l-3.2,3.2-3.41-3.4,3.41-3.41,3.16,3.16c0-.31-.06-.62-.08-.94l-2.66-2.65,2.19-2.19c0-.26-.05-.52-.07-.78l-2.54,2.54-3.41-3.4,3.41-3.41,2.35,2.35c0-.32-.07-.63-.1-.95l-1.67-1.67h-1.17l-3.25,3.25L384,144.08h-1.17l-1.67,1.67c0,.32-.06.63-.1.95l2.36-2.35,3.4,3.41-3.4,3.4-2.55-2.54c0,.26-.05.52-.07.78l2.19,2.19-2.65,2.65-.09.94,3.17-3.16,3.4,3.41-3.4,3.4-3.21-3.2c0,.26-.05.52-.07.78l2.85,2.85-3.4,3.4c0,.31-.05.62-.08.93l.07-.07,3.41,3.41-3.41,3.41-.56-.57-.06.8.19.19-.23.24c0,.31,0,.61-.07.92l.73-.73L383,174.6,379.54,178l-1.09-1.1-.06.8.72.72-.83.84-.06.91,1.32-1.32,3.41,3.41-3.41,3.41L378,184.09l-.06.8,1.21,1.21-1.37,1.38-.06.91,1.86-1.86,3.41,3.41-3.41,3.41-2-2c0,.27,0,.54-.05.8l1.65,1.66-1.86,1.86c0,.3,0,.61-.05.91l2.34-2.34,3.41,3.41-3.41,3.4-2.45-2.45c0,.27,0,.54,0,.81l2.06,2.07-2.29,2.29c0,.31,0,.6,0,.9l2.76-2.76,3.41,3.41-3.41,3.4-2.82-2.82c0,.27,0,.54,0,.81l2.43,2.44-2.67,2.68c0,.29,0,.59,0,.89l3.14-3.14L383,213l-3.41,3.4-3.16-3.16c0,.27,0,.54,0,.82l2.77,2.77-3,3-.06,1.58,3.07,3.08-3.3,3.3c0,.35,0,.69,0,1l3.34,3.34-3.4,3.41-.14-.14,0,1.16.17-.17,3.4,3.41-3.4,3.41-.34-.34c0,.52,0,1,0,1.56l.38-.37,3.4,3.41-3.4,3.4-.51-.5c0,.28,0,.56,0,.84l.09.09-.1.1c0,.29,0,.58,0,.87l.54-.54,3.4,3.41-3.4,3.4-.64-.63c0,.28,0,.56,0,.84l.22.22-.23.23c0,.29,0,.58,0,.87l.67-.67,3.4,3.41-3.4,3.4-.74-.73c0,.28,0,.56,0,.84l.32.32L375,267c0,.29,0,.58,0,.86l.76-.75,3.4,3.4-3.4,3.41-.8-.8c0,.28,0,.57,0,.85l.38.38-.38.38c0,.29,0,.57,0,.86l.82-.81,3.4,3.4-3.4,3.41-.83-.83c0,.28,0,.57,0,.85l.41.41-.41.41v.85Zm3.83-19.18,3.41,3.41L379.54,270l-3.41-3.41Zm7.67-92,3.41,3.41L387.21,178l-3.41-3.41Zm0-.85-3.41-3.41,3.41-3.41,3.41,3.41Zm0,8.52,3.41,3.41-3.41,3.41-3.41-3.41Zm0,7.67,3.41,3.41-3.41,3.41-3.41-3.41Zm0,7.67,3.41,3.41-3.41,3.4-3.41-3.4Zm0,7.67,3.41,3.41-3.41,3.4-3.41-3.4Zm0,7.67,3.41,3.41-3.41,3.4L383.8,213Zm0,7.67,3.41,3.4L387.21,224l-3.41-3.41Zm0,15.34,3.41,3.4-3.41,3.41L383.8,236Zm0-.86-3.41-3.41,3.41-3.4,3.41,3.4Zm0,8.52,3.41,3.41L387.21,247l-3.41-3.41Zm0,7.67,3.41,3.41-3.41,3.41-3.41-3.41Zm0,7.67,3.41,3.41-3.41,3.41L383.8,259Zm-.43,7.25-3.4,3.4L380,262.8l3.41-3.41Zm-3.4-4.27-3.41-3.4,3.41-3.41,3.4,3.41Zm0-7.67-3.41-3.4,3.41-3.41,3.4,3.41Zm0-7.66L380,239.79l3.41-3.41,3.4,3.41Zm0-7.67L380,232.12l3.41-3.41,3.4,3.41Zm0-7.67L380,224.45l3.41-3.41,3.4,3.41Zm7.67-6.82,3.4,3.41-3.4,3.41-3.41-3.41Zm0,7.67,3.4,3.41-3.4,3.41-3.41-3.41Zm0,7.67,3.4,3.41-3.4,3.41-3.41-3.41Zm0,7.67,3.4,3.41-3.4,3.4-3.41-3.4Zm0,7.67,3.4,3.41-3.4,3.4-3.41-3.4Zm0,7.67,3.4,3.41-3.4,3.4-3.41-3.4Zm0,7.67,3.4,3.4-3.4,3.41-3.41-3.41Zm-3.84,3-3.41-3.41,3.41-3.41,3.41,3.41Zm-.43.42-3.4,3.41L380,270.46l3.41-3.4Zm-7.24-14.91L383,259l-3.41,3.41L376.13,259Zm0-7.67,3.41,3.41-3.41,3.41-3.41-3.41Zm0-7.67,3.41,3.41L379.54,247l-3.41-3.41Zm0-7.66L383,236l-3.41,3.41L376.13,236Zm0-7.67,3.41,3.4-3.41,3.41-3.41-3.41Zm0-7.67,3.41,3.4L379.54,224l-3.41-3.41Zm3.84-3.84,3.4,3.41-3.4,3.41L380,216.78Zm0-7.67,3.4,3.41-3.4,3.41L380,209.11Zm0-7.67,3.4,3.41-3.4,3.41L380,201.44Zm0-7.67,3.4,3.41-3.4,3.41L380,193.77Zm0-7.67,3.4,3.41-3.4,3.41L380,186.1Zm0-7.66,3.4,3.4-3.4,3.41L380,178.43Zm0-7.67,3.4,3.4-3.4,3.41L380,170.76Zm0-7.67,3.4,3.4-3.4,3.41L380,163.09Zm3.83-4.69-3.41-3.41,3.41-3.41,3.41,3.41Zm3.41,4.26-3.41,3.41-3.41-3.41,3.41-3.41Zm.43,7.24-3.41-3.41,3.41-3.4,3.4,3.4Zm0,7.67-3.41-3.41,3.41-3.4,3.4,3.4Zm0,7.67-3.41-3.41,3.41-3.4,3.4,3.4Zm0,7.67-3.41-3.41,3.41-3.41,3.4,3.41Zm0,7.67-3.41-3.41,3.41-3.41,3.4,3.41Zm0,7.67-3.41-3.41,3.41-3.41,3.4,3.41Zm0,7.67-3.41-3.41,3.41-3.41,3.4,3.41Zm3.4,4.26-3.4,3.41-3.41-3.41,3.41-3.41Zm.43,7.24-3.41-3.41,3.41-3.4,3.41,3.4Zm0,7.67-3.41-3.41,3.41-3.4,3.41,3.4Zm0,7.67L391.47,236l3.41-3.4,3.41,3.4Zm0,7.67-3.41-3.41,3.41-3.41,3.41,3.41Zm0,7.67-3.41-3.41,3.41-3.41,3.41,3.41Zm0,7.67L391.47,259l3.41-3.41,3.41,3.41Zm0,7.67-3.41-3.41,3.41-3.41,3.41,3.41Zm0,7.67-3.41-3.41,3.41-3.41,3.41,3.41Zm-7.24.42,3.41-3.4,3.4,3.4-3.4,3.41Zm-.43-.42-3.41-3.41,3.41-3.41,3.41,3.41Zm-7.24.42,3.41-3.4,3.4,3.4-3.4,3.41Zm-.43-.42-3.41-3.41,3.41-3.41L383,274.3Z"/><path class="cls-10" d="M374.87,282.38,373.23,284h.85l.79-.79Zm-10.67-3.82,3.41,3.41-2.05,2h.85L368,282.4l1.62,1.62h.86l-2.06-2,3.41-3.41,3,3c0-.28,0-.57,0-.85l-2.58-2.58,2.59-2.59c0-.29,0-.57,0-.86l-3,3-3.41-3.41,3.41-3.41,3,3c0-.28,0-.57,0-.85l-2.61-2.61,2.65-2.65c0-.28,0-.57,0-.86L371.87,270l-3.41-3.41,3.41-3.41,3.09,3.09c0-.28,0-.56,0-.84l-2.67-2.67,2.74-2.74c0-.29,0-.58,0-.87l-3.18,3.18L368.46,259l3.41-3.41,3.19,3.19c0-.28,0-.56,0-.84l-2.77-2.77,2.87-2.87c0-.29,0-.58,0-.87l-3.31,3.31-3.41-3.41,3.41-3.41,3.32,3.32c0-.28,0-.56,0-.84l-2.9-2.9,3-3c0-.52,0-1,0-1.56l-3.07-3.07,3.24-3.24,0-1.16-3.27-3.27,3.41-3.41.06.07c0-.34,0-.68,0-1l-.1.11-3.41-3.41,3.41-3.41.33.33.06-1.58-.39.4-3.41-3.41,3.41-3.41.63.64c0-.28,0-.55,0-.82l-.25-.24.27-.27c0-.3,0-.6,0-.89l-.73.73-3.41-3.41,3.41-3.41,1,1c0-.27,0-.54,0-.81l-.59-.58.65-.65c0-.3,0-.59,0-.9l-1.11,1.12-3.41-3.41,3.41-3.41,1.34,1.34c0-.27,0-.54,0-.81l-1-.95,1.07-1.07c0-.3,0-.61.05-.91l-1.54,1.55-3.41-3.41,3.41-3.41,1.75,1.75c0-.26,0-.53.05-.8l-1.38-1.37,1.55-1.55.06-.91-2,2-3.41-3.41,3.41-3.41,2.19,2.2.06-.8-1.83-1.82,2.09-2.09.06-.91-2.57,2.57-3.41-3.41,3.41-3.4,2.68,2.68.06-.8-2.32-2.31,2.68-2.68c0-.31.05-.61.07-.92l-3.17,3.17-3.41-3.41,3.41-3.4,3.21,3.21.06-.8-2.85-2.84,3.34-3.34c0-.31.06-.62.08-.93h0l-3.41-3.41,3.41-3.41.56.56c0-.26,0-.52.07-.78l-.2-.2.24-.25.09-.94-.76.76-3.41-3.41,3.41-3.41,1.22,1.22c0-.26.05-.52.07-.78l-.86-.86,1-1.06c0-.32.07-.63.1-.95l-1.58,1.58-3.25-3.25h-.82v0l3.65,3.65-3.4,3.4-1.38-1.37c0,.24-.09.48-.14.72l1.09,1.08-1.59,1.59c-.07.35-.13.7-.19,1l2.21-2.21,3.4,3.41-3.4,3.4-2.58-2.58c-.05.25-.09.48-.13.73l2.28,2.28L372,162.5c0,.1,0,.21-.05.32s-.08.47-.11.7l3.4,3.41-3.41,3.41-.93-.94-.12.74.63.62-.85.85h0c-.05.33-.11.66-.16,1h0l1.43-1.43,3.41,3.41L371.87,178l-1.93-1.93c0,.25-.07.49-.1.74l1.61,1.61-2.13,2.13c0,.33-.09.65-.13,1l2.68-2.68,3.41,3.41-3.41,3.41L369,182.82c0,.25-.07.5-.1.75l2.53,2.53-3.26,3.26c0,.1,0,.2,0,.3,0,.25,0,.49-.08.73l3.38,3.38L368,197.18l-.68-.67c0,.25-.05.51-.08.77l.33.33-.41.41c0,.32-.07.64-.11,1l1-.95,3.41,3.41L368,204.85l-1.41-1.41c0,.15,0,.29,0,.44s0,.23,0,.34l1.06,1.06-1.28,1.28h0c0,.31-.05.62-.08.93l1.8-1.8,3.41,3.41L368,212.52,366,210.44h0c0,.26,0,.51-.07.77h0l1.72,1.73-2,2,0,.3c0,.21,0,.42-.05.63l2.55-2.55,3.41,3.41L368,220.19l-2.68-2.68c0,.26,0,.52-.07.79l2.32,2.31-2.7,2.71c0,.3-.05.61-.07.92L368,221l3.41,3.41L368,227.86l-3.23-3.23c0,.13,0,.26,0,.39l0,.41,2.85,2.85-3.26,3.26c0,.22,0,.43,0,.64l0,.45,3.33,3.32-3.41,3.41-.29-.29h0c0,.5-.05,1-.08,1.51l.37-.38,3.41,3.41L364.2,247l-.65-.65,0,.81h0l.26.26-.28.27c0,.3,0,.6,0,.89l.74-.74,3.41,3.41-3.41,3.41-.94-.94c0,.28,0,.55,0,.83l.54.54-.58.57v.23c0,.22,0,.44,0,.65l1-1,3.41,3.41-3.41,3.41L363,261.2c0,.28,0,.56,0,.83l.76.77-.8.8,0,.8v.07l1.25-1.25,3.41,3.41L364.2,270l-1.33-1.33c0,.28,0,.55,0,.83l.92.92-1,1v.42c0,.15,0,.29,0,.44l1.39-1.39,3.41,3.41-3.41,3.41-1.43-1.44c0,.29,0,.57,0,.85l1,1-1,1V280ZM375.71,166.5l-3.41-3.41,3.41-3.4,3.4,3.4ZM368,236.38l3.41,3.41L368,243.2l-3.41-3.41Zm0-7.67,3.41,3.41L368,235.53l-3.41-3.41Zm3.83-35.36-3.41-3.41,3.41-3.41,3.41,3.41Zm0,7.66-3.41-3.4,3.41-3.41,3.41,3.41Zm0,7.67-3.41-3.4,3.41-3.41,3.41,3.41Zm0,7.67-3.41-3.4,3.41-3.41,3.41,3.41Zm0,7.67-3.41-3.41,3.41-3.4,3.41,3.4Zm0,7.67-3.41-3.41,3.41-3.4,3.41,3.4Zm0,7.67L368.46,236l3.41-3.4,3.41,3.4Zm0,7.67-3.41-3.41,3.41-3.41,3.41,3.41ZM368,250.86l-3.41-3.4,3.41-3.41,3.41,3.41Zm0,7.67-3.41-3.4,3.41-3.41,3.41,3.41Zm0,7.67-3.41-3.4,3.41-3.41,3.41,3.41Zm0,7.67-3.41-3.41,3.41-3.4,3.41,3.4Zm-3.41,4.26,3.41-3.4,3.41,3.4L368,281.54Z"/><path class="cls-11" d="M399.57,283.23l.78.79h.86l-1.65-1.64C399.56,282.66,399.56,283,399.57,283.23ZM411.69,280v-.86l-1-1,1-1c0-.28,0-.56,0-.85l-1.44,1.44-3.4-3.41,3.4-3.41,1.39,1.39v-.44c0-.14,0-.28,0-.42l-.95-1,.92-.92c0-.28,0-.55,0-.83L410.23,270l-3.4-3.41,3.4-3.41,1.25,1.25v-.07c0-.27,0-.54,0-.8l-.8-.8.76-.77c0-.27,0-.55,0-.83l-1.17,1.17-3.4-3.41,3.4-3.41,1,1,0-.65v-.23l-.58-.57.54-.54,0-.83-.94.94-3.4-3.41,3.4-3.41.74.74,0-.89-.28-.27.26-.26h0c0-.27,0-.54,0-.81l-.65.65-3.4-3.41,3.4-3.41.37.38c0-.51-.05-1-.08-1.51h0l-.29.29-3.4-3.41,3.32-3.32,0-.45c0-.21,0-.42,0-.64l-3.25-3.26,2.85-2.85,0-.41,0-.39-3.22,3.23L403,224.45,406.4,221l3.19,3.2-.06-.92-2.7-2.71,2.31-2.31-.06-.79-2.68,2.68L403,216.78l3.41-3.41,2.55,2.55c0-.21,0-.42-.05-.63l0-.3-2-2,1.72-1.73h0c0-.26-.05-.51-.07-.77h0l-2.08,2.08L403,209.11l3.41-3.41,1.8,1.8-.09-.93h0l-1.28-1.28,1.05-1.06,0-.34c0-.15,0-.29-.05-.44l-1.4,1.41L403,201.44,406.4,198l.94.95c0-.32-.07-.64-.1-1l-.41-.41.33-.33-.09-.77-.67.67L403,193.77l3.38-3.38-.09-.73,0-.3L403,186.1l2.53-2.53c0-.25-.07-.5-.1-.75l-2.86,2.86-3.4-3.41,3.4-3.41,2.69,2.68c-.05-.33-.09-.65-.14-1L403,178.43l1.61-1.61c0-.25-.07-.49-.11-.74L402.56,178l-3.4-3.41,3.4-3.41,1.43,1.43h0l-.15-1h0l-.85-.85.62-.62c0-.24-.07-.49-.11-.74l-.94.94-3.4-3.41,3.4-3.41c0-.23-.08-.47-.11-.7l-.06-.32-3.23-3.24,2.28-2.28c0-.25-.09-.48-.13-.73l-2.58,2.58-3.41-3.4,3.41-3.41,2.21,2.21c-.06-.35-.13-.7-.19-1l-1.59-1.59,1.08-1.08c0-.24-.09-.48-.14-.72l-1.37,1.37-3.41-3.4,3.65-3.65v0h-.83l-3.25,3.25-1.57-1.58.09.95,1.06,1.06-.87.86c0,.26,0,.52.08.78l1.21-1.22,3.41,3.41L394.89,155l-.75-.76.09.94.24.25-.2.2c0,.26.05.52.07.78l.55-.56,3.41,3.41-3.41,3.41h0c0,.31.05.62.07.93l3.34,3.34-2.84,2.84.06.8,3.21-3.21,3.41,3.4-3.41,3.41L395.55,171c0,.31.05.61.07.92l2.68,2.68L396,176.91l.06.8,2.68-2.68,3.41,3.4-3.41,3.41-2.57-2.57.06.91,2.08,2.09-1.82,1.82c0,.27,0,.54,0,.8l2.2-2.2,3.41,3.41-3.41,3.41-2-2,.06.91,1.54,1.55-1.37,1.37c0,.27,0,.54.05.8l1.75-1.75,3.41,3.41-3.41,3.41-1.55-1.55c0,.3,0,.61.05.91l1.07,1.07-.95.95c0,.27,0,.54,0,.81l1.34-1.34,3.41,3.41-3.41,3.41-1.12-1.12c0,.31,0,.6.05.9l.64.65-.58.58c0,.27,0,.54,0,.81l1-1,3.41,3.41-3.41,3.41-.73-.73c0,.29,0,.59,0,.89l.26.27-.24.24,0,.82.64-.64,3.41,3.41-3.41,3.41-.4-.4c0,.53.05,1.06.07,1.58l.33-.33,3.41,3.41-3.41,3.41-.1-.11,0,1,.07-.07,3.41,3.41-3.27,3.27,0,1.16,3.24,3.24-3.07,3.07,0,1.56,3,3-2.91,2.9c0,.28,0,.56,0,.84l3.31-3.32,3.41,3.41-3.41,3.41-3.31-3.31c0,.29,0,.58,0,.87l2.87,2.87-2.77,2.77c0,.28,0,.56,0,.84l3.18-3.19L406,259l-3.41,3.41-3.17-3.18c0,.29,0,.58,0,.87l2.74,2.74-2.67,2.67v.84l3.09-3.09,3.41,3.41L402.56,270,399.48,267c0,.29,0,.58,0,.86l2.65,2.65-2.61,2.61v.85l3-3L406,274.3l-3.41,3.41-3-3v.86l2.6,2.59-2.58,2.58v.85l3-3L406,282l-2.05,2h.85l1.63-1.62L408,284h.86l-2.05-2,3.4-3.41ZM395.32,163.09l3.41-3.4,3.41,3.4-3.41,3.41Zm14.49,76.7-3.41,3.41L403,239.79l3.41-3.41Zm0-7.67-3.41,3.41L403,232.12l3.41-3.41Zm-10.65-42.18,3.4-3.41,3.41,3.41-3.41,3.41Zm0,7.67,3.4-3.41,3.41,3.41-3.41,3.4Zm0,7.67,3.4-3.41,3.41,3.41-3.41,3.4Zm0,7.67,3.4-3.41L406,213l-3.41,3.4Zm0,7.66,3.4-3.4,3.41,3.4L402.56,224Zm0,7.67,3.4-3.4,3.41,3.4-3.41,3.41Zm0,7.67,3.4-3.4L406,236l-3.41,3.41Zm0,7.67,3.4-3.41,3.41,3.41L402.56,247Zm3.83,3.84,3.41-3.41,3.41,3.41-3.41,3.4Zm0,7.67,3.41-3.41,3.41,3.41-3.41,3.4Zm0,7.67,3.41-3.41,3.41,3.41-3.41,3.4Zm0,7.66,3.41-3.4,3.41,3.4-3.41,3.41Zm3.41,11.08L403,278.13l3.41-3.4,3.41,3.4Z"/><rect class="cls-6" x="529.17" y="260.86" width="8.57" height="5.81"/><rect class="cls-7" x="537.73" y="260.86" width="16.11" height="5.81"/><rect class="cls-6" x="520.02" y="266.67" width="15.24" height="78.44"/><rect class="cls-7" x="535.26" y="266.67" width="28.67" height="78.44"/><path class="cls-8" d="M547.74,270.67H546.3v5.63h1.44Zm7.72,0H554v5.63h1.44Zm5.15,0h-1.44v5.63h1.44Zm-18,0h-1.44v5.63h1.44Zm2.58,0h-1.44v5.63h1.44Zm7.72,0h-1.44v5.63h1.44Zm-2.58,0h-1.44v5.63h1.44Zm7.72,0h-1.44v5.63H558Zm-19.45,0v5.63H540v-5.63Zm11.73,8.1h-1.44v5.63h1.44Zm-2.57,0H546.3v5.63h1.44Zm-2.57,0h-1.44v5.63h1.44Zm10.29,0H554v5.63h1.44Zm-2.57,0h-1.44v5.63h1.44Zm5.14,0h-1.44v5.63H558Zm-15.44,0h-1.44v5.63h1.44Zm18,0h-1.44v5.63h1.44Zm-20.59,0h-1.44v5.63H540Zm12.87,8.1h-1.44v5.63h1.44Zm2.57,0H554v5.63h1.44Zm-7.72,0H546.3v5.63h1.44Zm12.87,0h-1.44v5.63h1.44Zm-20.59,0h-1.44v5.63H540Zm5.15,0h-1.44v5.63h1.44Zm-2.58,0h-1.44v5.63h1.44Zm7.72,0h-1.44v5.63h1.44Zm7.72,0h-1.44v5.63H558ZM540,295h-1.44v5.63H540Zm10.29,0h-1.44v5.63h1.44Zm2.58,0h-1.44v5.63h1.44Zm-7.72,0h-1.44v5.63h1.44Zm10.29,0H554v5.63h1.44Zm-12.87,0h-1.44v5.63h1.44ZM558,295h-1.44v5.63H558Zm-10.29,0H546.3v5.63h1.44Zm12.87,0h-1.44v5.63h1.44Zm0,8.1h-1.44v5.63h1.44Zm-10.3,0h-1.44v5.63h1.44Zm2.58,0h-1.44v5.63h1.44Zm2.57,0H554v5.63h1.44Zm2.57,0h-1.44v5.63H558Zm-18,0h-1.44v5.63H540Zm7.72,0H546.3v5.63h1.44Zm-5.15,0h-1.44v5.63h1.44Zm2.58,0h-1.44v5.63h1.44Zm-2.58,8.1h-1.44v5.63h1.44Zm12.87,0H554v5.63h1.44Zm2.57,0h-1.44v5.63H558Zm-7.72,0h-1.44v5.63h1.44Zm-10.29,0h-1.44v5.63H540Zm5.15,0h-1.44v5.63h1.44Zm15.44,0h-1.44v5.63h1.44Zm-7.72,0h-1.44v5.63h1.44Zm-5.15,0H546.3v5.63h1.44Zm-5.15,8.1h-1.44v5.63h1.44Zm15.44,0h-1.44v5.63H558Zm-7.72,0h-1.44v5.63h1.44Zm-10.29,0h-1.44v5.63H540Zm20.59,0h-1.44v5.63h1.44Zm-5.15,0H554v5.63h1.44Zm-7.72,0H546.3v5.63h1.44Zm-2.57,0h-1.44v5.63h1.44Zm7.72,0h-1.44v5.63h1.44Zm2.57,8.1H554V333h1.44Zm-5.15,0h-1.44V333h1.44Zm-2.57,0H546.3V333h1.44Zm-7.72,0h-1.44V333H540Zm18,0h-1.44V333H558Zm-12.86,0h-1.44V333h1.44Zm15.44,0h-1.44V333h1.44Zm-7.72,0h-1.44V333h1.44Zm-10.3,0h-1.44V333h1.44Zm2.58,8.1h-1.44v5.63h1.44Zm7.72,0h-1.44v5.63h1.44Zm7.72,0h-1.44v5.63h1.44Zm-12.87,0H546.3v5.63h1.44Zm-5.15,0h-1.44v5.63h1.44Zm12.87,0H554v5.63h1.44Zm-5.15,0h-1.44v5.63h1.44Zm-10.29,0h-1.44v5.63H540Zm18,0h-1.44v5.63H558Z"/><path class="cls-10" d="M532.22,270.67h-1.44v5.63h1.44Zm-7.72,0h-1.44v5.63h1.44Zm2.57,0h-1.44v5.63h1.44Zm2.57,0H528.2v5.63h1.44Zm2.58,8.1h-1.44v5.63h1.44Zm-5.15,0h-1.44v5.63h1.44Zm-2.57,0h-1.44v5.63h1.44Zm5.14,0H528.2v5.63h1.44Zm-2.57,8.1h-1.44v5.63h1.44Zm5.15,0h-1.44v5.63h1.44Zm-2.58,0H528.2v5.63h1.44Zm-5.14,0h-1.44v5.63h1.44Zm2.57,8.1h-1.44v5.63h1.44Zm2.57,0H528.2v5.63h1.44Zm2.58,0h-1.44v5.63h1.44Zm-7.72,0h-1.44v5.63h1.44Zm5.14,8.1H528.2v5.63h1.44Zm-5.14,0h-1.44v5.63h1.44Zm7.72,0h-1.44v5.63h1.44Zm-5.15,0h-1.44v5.63h1.44Zm-2.57,8.1h-1.44v5.63h1.44Zm2.57,0h-1.44v5.63h1.44Zm2.57,0H528.2v5.63h1.44Zm2.58,0h-1.44v5.63h1.44Zm-5.15,8.1h-1.44v5.63h1.44Zm2.57,0H528.2v5.63h1.44Zm-5.14,0h-1.44v5.63h1.44Zm7.72,0h-1.44v5.63h1.44Zm-2.58,8.1H528.2V333h1.44Zm2.58,0h-1.44V333h1.44Zm-7.72,0h-1.44V333h1.44Zm2.57,0h-1.44V333h1.44Zm5.15,8.1h-1.44v5.63h1.44Zm-7.72,0h-1.44v5.63h1.44Zm2.57,0h-1.44v5.63h1.44Zm2.57,0H528.2v5.63h1.44Z"/><polygon class="cls-8" points="165.12 188.18 170.61 291.01 149.67 291.01 149.67 188.18 165.12 188.18"/><polygon class="cls-6" points="134.21 188.18 149.67 188.18 149.67 291.01 128.72 291.01 134.21 188.18"/><path class="cls-10" d="M131.2,285.8h15.46l-.25-1.68H131.29Zm2.9-54.25h4.41l-.25-1.69h-4.07Zm.16-3h3.8l-.26-1.69h-3.45Zm.32-6h2.57l-.25-1.69h-2.23Zm-1,18.09h6.26l-.25-1.69H133.7Zm.33-6h5l-.25-1.68H134Zm-.16,3h5.64l-.26-1.69h-5.29Zm.64-12.07h3.18l-.25-1.69h-2.84Zm.32-6h2l-.26-1.68h-1.61ZM131,288.82h16.08l-.26-1.69H131.13Zm3.86-72.35h1.34l-.25-1.69h-1Zm.16-3h.73l-.25-1.69h-.39Zm-1.61,30.14h6.87l-.25-1.68h-6.53ZM132,270.74H144.4l-.25-1.69H132.1Zm-.65,12.05h14.85L146,281.1H131.45Zm.48-9h13l-.25-1.69H131.93Zm.33-6H144l-.26-1.68H132.26Zm-.65,12.06h14.24l-.26-1.69H131.61Zm.16-3H145.3l-.25-1.68H131.77Zm.65-12.06h11.16l-.25-1.69H132.42Zm.16-3H143l-.25-1.69H132.58Zm.48-9.05h8.71l-.25-1.68h-8.37Zm.32-6h7.48l-.25-1.69h-7.14Zm-.16,3h8.1l-.26-1.69h-7.75Zm-.48,9h9.94l-.26-1.69h-9.59Zm.16-3h9.32l-.25-1.69h-9Z"/><polygon class="cls-7" points="134.21 188.18 165.12 188.18 149.67 291.01 134.21 188.18"/><rect class="cls-8" x="138.78" y="184.06" width="21.76" height="4.12" transform="translate(299.33 372.24) rotate(180)"/><polygon class="cls-8" points="149.67 184.06 151.06 184.06 150.15 152.61 149.67 152.61 149.67 184.06"/><polygon class="cls-6" points="149.67 184.06 148.27 184.06 149.18 152.61 149.67 152.61 149.67 184.06"/><path class="cls-8" d="M154,247.64h-8.59l.25,1.69h8.09Zm-.45,3h-7.69l.26,1.68h7.18Zm.91-6h-9.5l.25,1.69h9Zm-1.36,9.05h-6.78l.25,1.69h6.27Zm2.26-15.08H144l.25,1.69h10.81Zm-.45,3H144.46l.26,1.68h9.9Zm-3.63,24.11h-3.15l.25,1.69H151Zm-.45,3h-2.25l.25,1.69h1.75Zm-14-78.38.26,1.69h25.3l.25-1.69Zm13.58,81.39H149l.26,1.69h.84Zm5.43-36.17H143.56l.25,1.69h11.71Zm-3.17,21.1h-5.87l.25,1.69h5.37Zm-.45,3h-5l.26,1.69h4.46Zm-.45,3h-4.07l.26,1.69h3.55Zm7.7-51.24H139.93l.26,1.69h18.95Zm.45-3H139.48l.25,1.68H159.6Zm.91-6H138.57l.26,1.69H160.5Zm-.46,3H139l.25,1.69h20.77Zm.91-6H138.12l.25,1.68H161Zm.91-6h-24.9l.25,1.69h24.39Zm-.46,3h-24l.25,1.69h23.49Zm-3.17,21.11H140.84l.25,1.69h17.15Zm-1.36,9H142.2l.25,1.69h14.43Zm-.45,3h-14l.26,1.69h13.52Zm.91-6H141.75l.25,1.69h15.33Zm.45-3H141.29l.26,1.69h16.24Zm-1.81,12.06H143.1l.26,1.68H156Zm2.71-18.09H140.39l.25,1.69h18.05Z"/><rect class="cls-6" x="128.53" y="291.01" width="21.13" height="52.35"/><rect class="cls-8" x="149.67" y="291.01" width="21.13" height="52.35"/><rect class="cls-6" x="169.67" y="185.24" width="14.22" height="138.75"/><rect class="cls-7" x="183.89" y="185.24" width="33.67" height="138.75"/><rect class="cls-6" x="174.69" y="172.71" width="14.22" height="12.52"/><rect class="cls-7" x="188.9" y="172.71" width="28.65" height="12.52"/><rect class="cls-6" x="179.71" y="160.19" width="14.22" height="12.52"/><rect class="cls-7" x="193.92" y="160.19" width="23.64" height="12.52"/><rect class="cls-6" x="184.72" y="147.67" width="14.22" height="12.52"/><rect class="cls-7" x="198.94" y="147.67" width="18.62" height="12.52"/><rect class="cls-6" x="189.74" y="135.14" width="14.22" height="12.52"/><rect class="cls-7" x="203.96" y="135.14" width="13.6" height="12.52"/><rect class="cls-8" x="188.9" y="183.69" width="28.65" height="1.54"/><rect class="cls-10" x="174.69" y="183.69" width="14.22" height="1.54"/><rect class="cls-8" x="188.9" y="179.46" width="28.65" height="1.54"/><rect class="cls-10" x="174.69" y="179.46" width="14.22" height="1.54"/><rect class="cls-12" x="169.67" y="322.44" width="14.22" height="1.54"/><rect class="cls-8" x="183.89" y="196.84" width="33.67" height="1.54"/><rect class="cls-10" x="169.67" y="196.84" width="14.22" height="1.54"/><rect class="cls-8" x="183.89" y="192.6" width="33.67" height="1.54"/><rect class="cls-10" x="169.67" y="192.6" width="14.22" height="1.54"/><rect class="cls-8" x="193.92" y="171.17" width="23.64" height="1.54"/><rect class="cls-10" x="179.71" y="171.17" width="14.22" height="1.54"/><rect class="cls-8" x="193.92" y="166.93" width="23.64" height="1.54"/><rect class="cls-10" x="179.71" y="166.93" width="14.22" height="1.54"/><rect class="cls-8" x="198.94" y="158.65" width="18.62" height="1.54"/><rect class="cls-10" x="184.72" y="158.65" width="14.22" height="1.54"/><rect class="cls-8" x="198.94" y="154.41" width="18.62" height="1.54"/><rect class="cls-10" x="184.72" y="154.41" width="14.22" height="1.54"/><rect class="cls-8" x="203.96" y="146.12" width="13.6" height="1.54"/><rect class="cls-10" x="189.74" y="146.12" width="14.22" height="1.54"/><rect class="cls-8" x="203.96" y="141.89" width="13.6" height="1.54"/><rect class="cls-10" x="189.74" y="141.89" width="14.22" height="1.54"/><rect class="cls-6" y="285.04" width="18.19" height="60.07" transform="translate(18.19 630.14) rotate(180)"/><rect class="cls-7" x="-19.94" y="309.6" width="58.06" height="12.95" transform="translate(325.17 306.98) rotate(90)"/><rect class="cls-8" x="18.19" y="285.04" width="18.19" height="60.07" transform="translate(54.56 630.14) rotate(180)"/><path class="cls-7" d="M29.87,289v9.05h2V289Zm-3.6,9.05h2V289h-2Zm-3.59,0h2V289h-2Z"/><path class="cls-7" d="M29.87,299.75v9.06h2v-9.06Zm-3.6,9.06h2v-9.06h-2Zm-3.59,0h2v-9.06h-2Z"/><path class="cls-7" d="M29.87,310.5v9.06h2V310.5Zm-3.6,9.06h2V310.5h-2Zm-3.59,0h2V310.5h-2Z"/><path class="cls-7" d="M29.87,321.25v9.06h2v-9.06Zm-3.6,9.06h2v-9.06h-2Zm-3.59,0h2v-9.06h-2Z"/><path class="cls-6" d="M13.7,289h-2v9.05h2Zm-3.6,0h-2v9.05h2Zm-5.61,0v9.05h2V289Zm9.21,10.74h-2v9.06h2Zm-3.6,0h-2v9.06h2Zm-3.59,0h-2v9.06h2Zm0,10.75h-2v9.06h2Zm3.59,0h-2v9.06h2Zm3.6,0h-2v9.06h2ZM6.51,321.25h-2v9.06h2Zm3.59,0h-2v9.06h2Zm3.6,0h-2v9.06h2Zm0,10.75h-2v9.05h2Zm-3.6,0h-2v9.05h2Zm-3.59,0h-2v9.05h2Z"/><path class="cls-7" d="M29.87,332v9.05h2V332Zm-3.6,9.05h2V332h-2Zm-3.59,0h2V332h-2Z"/><rect class="cls-10" x="264.48" y="44.36" width="39.58" height="7.66"/><path class="cls-6" d="M304.06,44.36c-4.13-2.75-11.45-4.58-19.79-4.58s-15.67,1.83-19.79,4.58Z"/><polygon class="cls-6" points="290.19 211.33 278.35 211.33 281.42 55.27 287.11 55.27 290.19 211.33"/><polygon class="cls-8" points="287.11 55.27 285.49 55.27 286.82 211.33 290.19 211.33 287.11 55.27"/><path class="cls-8" d="M304.06,52c-4.13,2.75-11.45,4.58-19.79,4.58S268.6,54.77,264.48,52Z"/><path class="cls-6" d="M272.69,46.83h-1.55a1.4,1.4,0,0,0,0,2.73h1.55a1.4,1.4,0,0,0,0-2.73Zm4.95,0h-1.56a1.4,1.4,0,0,0,0,2.73h1.56a1.4,1.4,0,0,0,0-2.73Zm4.94,0H281a1.4,1.4,0,0,0,0,2.73h1.56a1.4,1.4,0,0,0,0-2.73Zm4.94,0H286a1.4,1.4,0,0,0,0,2.73h1.56a1.4,1.4,0,0,0,0-2.73Zm4.94,0H290.9a1.4,1.4,0,0,0,0,2.73h1.56a1.4,1.4,0,0,0,0-2.73Zm4.94,0h-1.56a1.4,1.4,0,0,0,0,2.73h1.56a1.4,1.4,0,0,0,0-2.73Z"/><polygon class="cls-6" points="284.27 39.78 282.51 39.78 284.27 10.86 284.27 39.78"/><polygon class="cls-8" points="284.27 39.78 286.03 39.78 284.27 10.86 284.27 39.78"/><path class="cls-13" d="M286.42,12.17A2.15,2.15,0,1,1,284.27,10,2.15,2.15,0,0,1,286.42,12.17Z"/><path class="cls-6" d="M285.59,11.89a1.66,1.66,0,1,1-1.66-1.66A1.65,1.65,0,0,1,285.59,11.89Z"/><rect class="cls-6" x="408.52" y="183.18" width="25.72" height="166.43"/><path class="cls-7" d="M415.06,207.26h2.17V187.49h-2.17Zm3.49,0h2.17V187.49h-2.17Zm-7,0h2.18V187.49h-2.18Zm10.48,0h2.17V187.49H422Zm7-19.77v19.77h2.18V187.49Zm-3.49,19.77h2.18V187.49h-2.18ZM415.06,229.5h2.17V209.73h-2.17Zm14,0h2.18V209.73H429Zm-3.49,0h2.18V209.73h-2.18Zm-14,0h2.18V209.73h-2.18Zm7,0h2.17V209.73h-2.17Zm3.49,0h2.17V209.73H422Zm7,22.23h2.18V232H429Zm-3.49,0h2.18V232h-2.18Zm-10.47,0h2.17V232h-2.17Zm7,0h2.17V232H422Zm-10.48,0h2.18V232h-2.18Zm7,0h2.17V232h-2.17Zm-7,22.24h2.18V254.2h-2.18ZM422,274h2.17V254.2H422Zm3.49,0h2.18V254.2h-2.18Zm3.49,0h2.18V254.2H429Zm-14,0h2.17V254.2h-2.17Zm3.49,0h2.17V254.2h-2.17Z"/><rect class="cls-8" x="434.24" y="183.18" width="25.72" height="166.43"/><path class="cls-14" d="M440.77,207.26H443V187.49h-2.18Zm3.5,0h2.17V187.49h-2.17Zm-7,0h2.18V187.49h-2.18Zm10.48,0h2.17V187.49h-2.17Zm7-19.77v19.77h2.18V187.49Zm-3.49,19.77h2.17V187.49h-2.17ZM440.77,229.5H443V209.73h-2.18Zm14,0h2.18V209.73h-2.18Zm-3.49,0h2.17V209.73h-2.17Zm-14,0h2.18V209.73h-2.18Zm7,0h2.17V209.73h-2.17Zm3.49,0h2.17V209.73h-2.17Zm7,22.23h2.18V232h-2.18Zm-3.49,0h2.17V232h-2.17Zm-10.48,0H443V232h-2.18Zm7,0h2.17V232h-2.17Zm-10.48,0h2.18V232h-2.18Zm7,0h2.17V232h-2.17Zm-7,22.24h2.18V254.2h-2.18Zm10.48,0h2.17V254.2h-2.17Zm3.49,0h2.17V254.2h-2.17Zm3.49,0h2.18V254.2h-2.18Zm-14,0H443V254.2h-2.18Zm3.5,0h2.17V254.2h-2.17Z"/><rect class="cls-6" x="419.28" y="177.04" width="14.96" height="6.14"/><polygon class="cls-6" points="421.32 177.04 419.28 177.04 419.28 121.94 421.32 117.13 421.32 177.04"/><polygon class="cls-8" points="421.32 177.04 423.36 177.04 423.36 121.94 421.32 117.13 421.32 177.04"/><polygon class="cls-6" points="447.16 177.04 445.12 177.04 445.12 150.84 447.16 146.03 447.16 177.04"/><polygon class="cls-8" points="447.16 177.04 449.2 177.04 449.2 150.84 447.16 146.03 447.16 177.04"/><rect class="cls-8" x="434.24" y="177.04" width="14.96" height="6.14"/><rect class="cls-6" x="563.91" y="298.99" width="11.42" height="46.11" transform="translate(1139.24 644.1) rotate(180)"/><rect class="cls-8" x="575.33" y="298.99" width="11.42" height="46.11" transform="translate(1162.08 644.1) rotate(180)"/><polygon class="cls-6" points="566.66 298.97 575.33 298.97 575.33 293.24 566.66 298.97"/><rect class="cls-8" x="575.33" y="293.24" width="8.67" height="5.73" transform="translate(1159.33 592.21) rotate(180)"/><path class="cls-7" d="M572.57,301.68h-.93v3.63h.93Zm-5,0h-.93v3.63h.93Zm1.66,0h-.93v3.63h.93Zm1.66,0H570v3.63h.93Zm1.66,5.23h-.93v3.63h.93Zm-3.32,0h-.93v3.63h.93Zm-1.66,0h-.93v3.63h.93Zm3.32,0H570v3.63h.93Zm-1.66,5.22h-.93v3.63h.93Zm3.32,0h-.93v3.63h.93Zm-1.66,0H570v3.63h.93Zm-3.32,0h-.93v3.63h.93Zm1.66,5.23h-.93V321h.93Zm1.66,0H570V321h.93Zm1.66,0h-.93V321h.93Zm-5,0h-.93V321h.93Z"/><rect class="cls-10" x="241.3" y="122.88" width="16.15" height="128.29"/><polygon class="cls-8" points="257.45 251.16 268.64 251.16 268.64 101.36 257.45 122.88 257.45 251.16"/><polygon class="cls-6" points="230.11 251.16 241.3 251.16 241.3 122.88 230.11 101.36 230.11 251.16"/><path class="cls-8" d="M257.45,246l-2.69,5.13L252.07,246Z"/><path class="cls-8" d="M252.07,246l-2.7,5.13L246.68,246Z"/><path class="cls-8" d="M254.76,240.9,252.07,246l-2.7-5.13Z"/><path class="cls-8" d="M249.37,240.9,246.68,246,244,240.9Z"/><path class="cls-8" d="M246.68,246,244,251.16,241.3,246Z"/><path class="cls-8" d="M257.45,235.77l-2.69,5.13-2.69-5.13Z"/><path class="cls-8" d="M252.07,235.77l-2.7,5.13-2.69-5.13Z"/><path class="cls-8" d="M254.76,230.64l-2.69,5.13-2.7-5.13Z"/><path class="cls-8" d="M249.37,230.64l-2.69,5.13L244,230.64Z"/><path class="cls-8" d="M246.68,235.77,244,240.9l-2.69-5.13Z"/><path class="cls-8" d="M257.45,225.51l-2.69,5.13-2.69-5.13Z"/><path class="cls-8" d="M252.07,225.51l-2.7,5.13-2.69-5.13Z"/><path class="cls-8" d="M254.76,220.37l-2.69,5.14-2.7-5.14Z"/><path class="cls-8" d="M249.37,220.37l-2.69,5.14L244,220.37Z"/><path class="cls-8" d="M246.68,225.51,244,230.64l-2.69-5.13Z"/><path class="cls-8" d="M257.45,215.24l-2.69,5.13-2.69-5.13Z"/><path class="cls-8" d="M252.07,215.24l-2.7,5.13-2.69-5.13Z"/><path class="cls-8" d="M254.76,210.11l-2.69,5.13-2.7-5.13Z"/><path class="cls-8" d="M249.37,210.11l-2.69,5.13L244,210.11Z"/><path class="cls-8" d="M246.68,215.24,244,220.37l-2.69-5.13Z"/><path class="cls-8" d="M257.45,205l-2.69,5.13L252.07,205Z"/><path class="cls-8" d="M252.07,205l-2.7,5.13L246.68,205Z"/><path class="cls-8" d="M254.76,199.85,252.07,205l-2.7-5.13Z"/><path class="cls-8" d="M249.37,199.85,246.68,205,244,199.85Z"/><path class="cls-8" d="M246.68,205,244,210.11,241.3,205Z"/><path class="cls-8" d="M257.45,194.72l-2.69,5.13-2.69-5.13Z"/><path class="cls-8" d="M252.07,194.72l-2.7,5.13-2.69-5.13Z"/><path class="cls-8" d="M254.76,189.59l-2.69,5.13-2.7-5.13Z"/><path class="cls-8" d="M249.37,189.59l-2.69,5.13L244,189.59Z"/><path class="cls-8" d="M246.68,194.72,244,199.85l-2.69-5.13Z"/><path class="cls-8" d="M257.45,184.45l-2.69,5.14-2.69-5.14Z"/><path class="cls-8" d="M252.07,184.45l-2.7,5.14-2.69-5.14Z"/><path class="cls-8" d="M254.76,179.32l-2.69,5.13-2.7-5.13Z"/><path class="cls-8" d="M249.37,179.32l-2.69,5.13L244,179.32Z"/><path class="cls-8" d="M246.68,184.45,244,189.59l-2.69-5.14Z"/><path class="cls-8" d="M257.45,174.19l-2.69,5.13-2.69-5.13Z"/><path class="cls-8" d="M252.07,174.19l-2.7,5.13-2.69-5.13Z"/><path class="cls-8" d="M254.76,169.06l-2.69,5.13-2.7-5.13Z"/><path class="cls-8" d="M249.37,169.06l-2.69,5.13L244,169.06Z"/><path class="cls-8" d="M246.68,174.19,244,179.32l-2.69-5.13Z"/><path class="cls-8" d="M257.45,163.93l-2.69,5.13-2.69-5.13Z"/><path class="cls-8" d="M252.07,163.93l-2.7,5.13-2.69-5.13Z"/><path class="cls-8" d="M254.76,158.8l-2.69,5.13-2.7-5.13Z"/><path class="cls-8" d="M249.37,158.8l-2.69,5.13L244,158.8Z"/><path class="cls-8" d="M246.68,163.93,244,169.06l-2.69-5.13Z"/><path class="cls-8" d="M257.45,153.67l-2.69,5.13-2.69-5.13Z"/><path class="cls-8" d="M252.07,153.67l-2.7,5.13-2.69-5.13Z"/><path class="cls-8" d="M246.68,153.67,244,158.8l-2.69-5.13Z"/><path class="cls-8" d="M254.76,148.53l-2.69,5.14-2.7-5.14Z"/><path class="cls-8" d="M249.37,148.53l-2.69,5.14L244,148.53Z"/><path class="cls-8" d="M257.45,143.4l-2.69,5.13-2.69-5.13Z"/><path class="cls-8" d="M252.07,143.4l-2.7,5.13-2.69-5.13Z"/><path class="cls-8" d="M254.76,138.27l-2.69,5.13-2.7-5.13Z"/><path class="cls-8" d="M249.37,138.27l-2.69,5.13L244,138.27Z"/><path class="cls-8" d="M246.68,143.4,244,148.53l-2.69-5.13Z"/><path class="cls-8" d="M257.45,133.14l-2.69,5.13-2.69-5.13Z"/><path class="cls-8" d="M252.07,133.14l-2.7,5.13-2.69-5.13Z"/><path class="cls-8" d="M254.76,128l-2.69,5.13-2.7-5.13Z"/><path class="cls-8" d="M249.37,128l-2.69,5.13L244,128Z"/><path class="cls-8" d="M246.68,133.14,244,138.27l-2.69-5.13Z"/><path class="cls-8" d="M257.45,122.88,254.76,128l-2.69-5.13Z"/><path class="cls-8" d="M252.07,122.88l-2.7,5.13-2.69-5.13Z"/><path class="cls-8" d="M246.68,122.88,244,128l-2.69-5.13Z"/><polygon class="cls-10" points="241.3 122.88 257.45 122.88 268.64 101.36 230.11 101.36 241.3 122.88"/><rect class="cls-6" x="290.24" y="181.2" width="9.17" height="6.22"/><rect class="cls-15" x="299.41" y="181.2" width="17.25" height="6.22"/><rect class="cls-6" x="280.44" y="187.42" width="16.32" height="83.98"/><rect class="cls-15" x="296.76" y="187.42" width="30.7" height="83.98"/><path class="cls-12" d="M304.62,191.71h-1.55v6h1.55Zm2.75,0h-1.54v6h1.54Zm-7.05,0v6h1.54v-6Zm7.05,8.67h-1.54v6h1.54Zm-2.75,0h-1.55v6h1.55Zm-2.76,0h-1.54v6h1.54Zm0,8.68h-1.54v6h1.54Zm5.51,0h-1.54v6h1.54Zm-2.75,0h-1.55v6h1.55Zm-2.76,8.67h-1.54v6h1.54Zm5.51,0h-1.54v6h1.54Zm-2.75,0h-1.55v6h1.55Zm-2.76,8.67h-1.54v6h1.54Zm2.76,0h-1.55v6h1.55Zm2.75,0h-1.54v6h1.54Zm-2.75,8.67h-1.55v6h1.55Zm-2.76,0h-1.54v6h1.54Zm5.51,0h-1.54v6h1.54Zm-2.75,8.68h-1.55v6h1.55Zm-2.76,0h-1.54v6h1.54Zm5.51,0h-1.54v6h1.54Zm-5.51,8.67h-1.54v6h1.54Zm5.51,0h-1.54v6h1.54Zm-2.75,0h-1.55v6h1.55Zm2.75,8.67h-1.54v6h1.54Zm-2.75,0h-1.55v6h1.55Zm-2.76,0h-1.54v6h1.54Z"/><path class="cls-15" d="M293.51,191.71H292v6h1.55Zm-8.27,0H283.7v6h1.54Zm2.76,0h-1.55v6H288Zm2.75,0h-1.54v6h1.54Zm2.76,8.67H292v6h1.55Zm-5.51,0h-1.55v6H288Zm-2.76,0H283.7v6h1.54Zm5.51,0h-1.54v6h1.54ZM288,209.06h-1.55v6H288Zm5.51,0H292v6h1.55Zm-2.76,0h-1.54v6h1.54Zm-5.51,0H283.7v6h1.54Zm2.76,8.67h-1.55v6H288Zm2.75,0h-1.54v6h1.54Zm2.76,0H292v6h1.55Zm-8.27,0H283.7v6h1.54Zm5.51,8.67h-1.54v6h1.54Zm-5.51,0H283.7v6h1.54Zm8.27,0H292v6h1.55Zm-5.51,0h-1.55v6H288Zm-2.76,8.67H283.7v6h1.54Zm2.76,0h-1.55v6H288Zm2.75,0h-1.54v6h1.54Zm2.76,0H292v6h1.55ZM288,243.75h-1.55v6H288Zm2.75,0h-1.54v6h1.54Zm-5.51,0H283.7v6h1.54Zm8.27,0H292v6h1.55Zm-2.76,8.67h-1.54v6h1.54Zm2.76,0H292v6h1.55Zm-8.27,0H283.7v6h1.54Zm2.76,0h-1.55v6H288Zm5.51,8.67H292v6h1.55Zm-8.27,0H283.7v6h1.54Zm2.76,0h-1.55v6H288Zm2.75,0h-1.54v6h1.54Z"/><polygon class="cls-7" points="220 347.33 246.76 347.33 246.76 181.52 220 149.98 220 347.33"/><rect class="cls-6" x="223.56" y="160.48" width="0.58" height="183.01"/><rect class="cls-6" x="227.37" y="164.97" width="0.58" height="178.52"/><rect class="cls-6" x="231.18" y="169.46" width="0.58" height="174.03"/><rect class="cls-6" x="234.99" y="173.95" width="0.58" height="169.54"/><rect class="cls-6" x="238.8" y="178.44" width="0.58" height="165.04"/><rect class="cls-6" x="242.62" y="182.93" width="0.58" height="160.55"/><rect class="cls-16" x="246.76" y="181.52" width="26.75" height="165.82" transform="translate(520.27 528.85) rotate(180)"/><rect class="cls-6" x="269.37" y="185.37" width="0.58" height="158.12"/><rect class="cls-6" x="265.56" y="185.37" width="0.58" height="158.12"/><rect class="cls-6" x="261.75" y="185.37" width="0.58" height="158.12"/><rect class="cls-6" x="257.94" y="185.37" width="0.58" height="158.12"/><rect class="cls-6" x="254.13" y="185.37" width="0.58" height="158.12"/><rect class="cls-6" x="250.32" y="185.37" width="0.58" height="158.12"/><polygon class="cls-6" points="246.76 149.98 220 149.98 246.76 181.52 273.51 181.52 246.76 149.98"/><polygon class="cls-6" points="246.76 153.73 226.37 153.73 246.76 177.76 267.14 177.76 246.76 153.73"/><polygon class="cls-17" points="246.76 157.1 264.29 177.76 267.14 177.76 246.76 153.73 226.37 153.73 229.23 157.1 246.76 157.1"/><polygon class="cls-18" points="246.76 181.52 220 149.98 220 235.78 246.76 181.52"/><polygon class="cls-19" points="286.8 204.63 273.51 187.39 273.51 347.3 286.8 347.3 286.8 204.63"/><rect class="cls-20" x="69.3" y="258.12" width="20.23" height="86.98"/><path class="cls-20" d="M56.52,253.76H81.34A3.64,3.64,0,0,1,85,257.39v.73a0,0,0,0,1,0,0H56.52a0,0,0,0,1,0,0v-4.36A0,0,0,0,1,56.52,253.76Z"/><rect class="cls-21" x="33.09" y="258.12" width="36.21" height="86.98"/><rect class="cls-16" x="35.31" y="260.35" width="31.76" height="81.04"/><rect class="cls-22" x="35.31" y="260.35" width="1.65" height="81.04"/><path class="cls-21" d="M40.6,253.76H65.42a0,0,0,0,1,0,0v4.36a0,0,0,0,1,0,0H37a0,0,0,0,1,0,0v-.73A3.64,3.64,0,0,1,40.6,253.76Z"/><path class="cls-7" d="M39.72,269.92h3.37v-6.85H39.72Zm5.33,11.57h3.37v-7.2H45.05Zm5.34,11.56h3.37v-7.2H50.39Zm5.33,11.56h3.37v-7.2H55.72ZM61.06,309v7.2h3.37V309ZM39.72,285.48h3.37v-7.19H39.72ZM45.05,297h3.37v-7.19H45.05Zm5.34,11.57h3.37v-7.2H50.39Zm5.33,11.56h3.37V313H55.72Zm5.34,4.36v7.2h3.37v-7.2Zm-16-58.6h3.37v-2.86H45.05Zm5.34,11.56h3.37v-7.2H50.39Zm5.33,11.56h3.37v-7.2H55.72Zm5.34,4.36v7.2h3.37v-7.2Zm-5.34-19.92h3.37v-7.2H55.72Zm5.34,4.36v7.2h3.37v-7.2Zm0-14.78v6.42h3.37v-6.42ZM39.72,301h3.37v-7.19H39.72Zm5.33,11.56h3.37v-7.19H45.05Zm5.34,11.57h3.37V317H50.39Zm5.33,11.56h3.37v-7.2H55.72Zm-16-19.13h3.37v-7.19H39.72Zm5.33,11.56h3.37V321H45.05Zm5.34,11.56h3.37v-7.19H50.39Zm-10.67-7.56h3.37V325H39.72Zm5.33,9.23h3.37v-4.86H45.05Z"/><rect class="cls-23" x="60.54" y="233.25" width="0.93" height="20.51"/><rect class="cls-20" x="61.47" y="233.25" width="0.93" height="20.51"/><rect class="cls-23" x="57.18" y="240.68" width="0.93" height="13.08"/><rect class="cls-20" x="58.11" y="240.68" width="0.93" height="13.08"/><polygon class="cls-19" points="102.83 286.92 89.53 269.68 89.53 345.11 102.83 345.11 102.83 286.92"/><path class="cls-6" d="M89.53,336h0a2.72,2.72,0,0,1-2.72-2.73V309.86a2.72,2.72,0,0,1,2.72-2.72h0a2.72,2.72,0,0,1,2.72,2.72v23.43A2.72,2.72,0,0,1,89.53,336Z"/><polygon class="cls-19" points="405.84 225.78 389.23 208.55 389.23 285.91 405.84 285.91 405.84 225.78"/><rect class="cls-24" x="327.1" y="123.78" width="38.47" height="223.56"/><rect class="cls-24" x="333.17" y="120.11" width="26.33" height="3.67"/><rect class="cls-17" x="331.22" y="116.44" width="30.22" height="3.67"/><path class="cls-16" d="M325.22,123.78v3.69h42.22v-3.69Zm0,11.08h42.22v-3.7H325.22Zm0,7.39h42.22v-3.7H325.22Zm0,7.38h42.22v-3.69H325.22Zm0,7.39h42.22v-3.69H325.22Zm0,7.39h42.22v-3.69H325.22Zm0,7.39h42.22v-3.7H325.22Zm0,7.39h42.22v-3.7H325.22Zm0,7.39h42.22v-3.7H325.22Zm0,7.38h42.22v-3.69H325.22Zm0,7.39h42.22v-3.69H325.22Zm0,7.39h42.22v-3.69H325.22Zm0,7.39h42.22v-3.7H325.22Zm0,7.39h42.22v-3.7H325.22Zm0,7.38h42.22v-3.69H325.22Zm0,7.39h42.22V234.6H325.22Zm0,7.39h42.22V242H325.22Zm0,7.39h42.22v-3.7H325.22Zm0,7.39h42.22v-3.7H325.22Zm0,7.39h42.22v-3.7H325.22Zm0,7.38h42.22v-3.69H325.22Zm0,7.39h42.22v-3.69H325.22Zm0,7.39h42.22v-3.69H325.22Zm0,7.39h42.22v-3.7H325.22Z"/><rect class="cls-8" x="310.93" y="123.78" width="38.47" height="223.56"/><rect class="cls-8" x="316.99" y="120.11" width="26.33" height="3.67"/><rect class="cls-6" x="315.05" y="116.44" width="30.22" height="3.67"/><path class="cls-7" d="M309.05,123.78v3.69h42.22v-3.69Zm0,11.08h42.22v-3.7H309.05Zm0,7.39h42.22v-3.7H309.05Zm0,7.38h42.22v-3.69H309.05Zm0,7.39h42.22v-3.69H309.05Zm0,7.39h42.22v-3.69H309.05Zm0,7.39h42.22v-3.7H309.05Zm0,7.39h42.22v-3.7H309.05Zm0,7.39h42.22v-3.7H309.05Zm0,7.38h42.22v-3.69H309.05Zm0,7.39h42.22v-3.69H309.05Zm0,7.39h42.22v-3.69H309.05Zm0,7.39h42.22v-3.7H309.05Zm0,7.39h42.22v-3.7H309.05Zm0,7.38h42.22v-3.69H309.05Zm0,7.39h42.22V234.6H309.05Zm0,7.39h42.22V242H309.05Zm0,7.39h42.22v-3.7H309.05Zm0,7.39h42.22v-3.7H309.05Zm0,7.39h42.22v-3.7H309.05Zm0,7.38h42.22v-3.69H309.05Zm0,7.39h42.22v-3.69H309.05Zm0,7.39h42.22v-3.69H309.05Zm0,7.39h42.22v-3.7H309.05Z"/><path class="cls-17" d="M309.05,243.14h42.22V242H309.05Zm0,7.39h42.22v-1.16H309.05Zm0-29.55h42.22v-1.16H309.05Zm0,36.94h42.22v-1.16H309.05Zm0-29.55h42.22v-1.16H309.05Zm0,59.1h42.22v-1.15H309.05Zm0-73.88h42.22v-1.16H309.05Zm0,81.27h42.22V293.7H309.05Zm0-29.55h42.22v-1.16H309.05Zm0,14.77h42.22v-1.15H309.05Zm0-7.38h42.22v-1.16H309.05Zm0-36.95h42.22V234.6H309.05Zm0-88.65h42.22v-1.16H309.05Zm0-7.39h42.22v-1.16H309.05Zm0,14.77h42.22v-1.15H309.05Zm0,7.39h42.22v-1.15H309.05Zm0,44.33h42.22v-1.15H309.05Zm0-82.42v1.15h42.22v-1.15Zm0,8.54h42.22v-1.16H309.05Zm0,59.11h42.22v-1.16H309.05Zm0,7.38h42.22v-1.15H309.05Zm0-22.16h42.22v-1.16H309.05Zm0,7.39h42.22v-1.16H309.05Zm0-14.78h42.22V168.1H309.05Z"/><polygon class="cls-25" points="349.39 201.35 351.27 201.35 351.27 197.66 349.39 197.66 349.39 193.96 351.27 193.96 351.27 190.27 349.39 190.27 349.39 186.57 351.27 186.57 351.27 182.88 349.39 182.88 349.39 179.19 351.27 179.19 351.27 175.49 349.39 175.49 349.39 171.8 351.27 171.8 351.27 168.1 349.39 168.1 349.39 164.41 351.27 164.41 351.27 160.72 349.39 160.72 349.39 157.02 351.27 157.02 351.27 153.33 349.39 153.33 349.39 149.63 351.27 149.63 351.27 145.94 349.39 145.94 349.39 142.25 351.27 142.25 351.27 138.55 349.39 138.55 349.39 134.86 351.27 134.86 351.27 131.16 349.39 131.16 349.39 127.47 351.27 127.47 351.27 123.78 317.94 123.78 318.08 124.64 349.39 204.13 349.39 201.35"/><polygon class="cls-26" points="351.27 208.74 351.27 205.05 349.76 205.05 351.21 208.74 351.27 208.74"/><rect class="cls-27" x="249.65" y="247.54" width="34.62" height="99.8"/><rect class="cls-27" x="253.84" y="243.38" width="26.23" height="4.16"/><rect class="cls-28" x="252.35" y="239.22" width="29.21" height="4.16"/><path class="cls-28" d="M248.25,247.54v4.16h37.42v-4.16Zm0,12.47h37.42v-4.15H248.25Zm0,8.32h37.42v-4.16H248.25Zm0,8.32h37.42v-4.16H248.25Zm0,8.31h37.42V280.8H248.25Zm0,8.32h37.42v-4.16H248.25Zm0,8.32h37.42v-4.16H248.25Zm0,8.31h37.42v-4.16H248.25Zm0,8.32h37.42v-4.16H248.25Zm0,8.31h37.42v-4.15H248.25Zm0,8.32h37.42V330.7H248.25Zm0,8.32h37.42V339H248.25Z"/><rect class="cls-28" x="238.05" y="247.54" width="34.62" height="99.8"/><rect class="cls-28" x="242.25" y="243.38" width="26.23" height="4.16"/><rect class="cls-21" x="240.76" y="239.22" width="29.21" height="4.16"/><path class="cls-29" d="M236.65,247.54v4.16h37.42v-4.16Zm0,12.47h37.42v-4.15H236.65Zm0,8.32h37.42v-4.16H236.65Zm0,8.32h37.42v-4.16H236.65Zm0,8.31h37.42V280.8H236.65Zm0,8.32h37.42v-4.16H236.65Zm0,8.32h37.42v-4.16H236.65Zm0,8.31h37.42v-4.16H236.65Zm0,8.32h37.42v-4.16H236.65Zm0,8.31h37.42v-4.15H236.65Zm0,8.32h37.42V330.7H236.65Zm0,8.32h37.42V339H236.65Z"/><path class="cls-21" d="M236.65,299.17h37.42v-1.73H236.65Zm0,16.63h37.42v-1.73H236.65Zm0-8.31h37.42v-1.74H236.65Zm0,16.63h37.42v-1.73H236.65Zm0,8.32h37.42V330.7H236.65Zm0,8.31h37.42V339H236.65Zm0-83.16h37.42v-1.73H236.65Zm0,8.32h37.42v-1.74H236.65Zm0,24.94h37.42v-1.73H236.65Zm0-43.31v1.73h37.42v-1.73Zm0,26.68h37.42v-1.73H236.65Zm0,8.32h37.42V280.8H236.65Z"/><rect class="cls-6" x="258.59" y="226.59" width="5.44" height="14.44" transform="translate(27.5 495.12) rotate(-90)"/><polygon class="cls-16" points="503.42 347.33 476.67 347.33 476.67 227.76 503.42 196.22 503.42 347.33"/><g class="cls-30"><rect class="cls-6" x="499.28" y="206.72" width="0.58" height="136.77"/><rect class="cls-6" x="495.47" y="211.21" width="0.58" height="132.27"/><rect class="cls-6" x="491.66" y="215.7" width="0.58" height="127.78"/><rect class="cls-6" x="487.85" y="220.19" width="0.58" height="123.29"/><rect class="cls-6" x="484.04" y="224.68" width="0.58" height="118.8"/><rect class="cls-6" x="480.23" y="229.17" width="0.58" height="114.31"/></g><rect class="cls-7" x="449.91" y="227.76" width="26.75" height="119.58"/><rect class="cls-6" x="453.47" y="231.61" width="0.58" height="111.87"/><rect class="cls-6" x="457.28" y="231.61" width="0.58" height="111.87"/><rect class="cls-6" x="461.09" y="231.61" width="0.58" height="111.87"/><rect class="cls-6" x="464.9" y="231.61" width="0.58" height="111.87"/><rect class="cls-6" x="468.71" y="231.61" width="0.58" height="111.87"/><rect class="cls-6" x="472.52" y="231.61" width="0.58" height="111.87"/><rect class="cls-6" x="453.09" y="231.23" width="1.34" height="112.64"/><rect class="cls-6" x="456.9" y="231.23" width="1.34" height="112.64"/><rect class="cls-6" x="460.71" y="231.23" width="1.34" height="112.64"/><rect class="cls-6" x="464.52" y="231.23" width="1.34" height="112.64"/><rect class="cls-6" x="468.33" y="231.23" width="1.34" height="112.64"/><rect class="cls-6" x="472.14" y="231.23" width="1.34" height="112.64"/><polygon class="cls-6" points="476.67 196.22 503.42 196.22 476.67 227.76 449.91 227.76 476.67 196.22"/><rect class="cls-31" x="316.91" y="189.74" width="13.76" height="157.6"/><polygon class="cls-29" points="316.91 347.33 283.65 347.33 283.65 212.86 316.91 189.74 316.91 347.33"/><rect class="cls-6" x="280.03" y="212.28" width="40.51" height="1.16" transform="translate(-67.77 209.44) rotate(-34.8)"/><rect class="cls-6" x="280.03" y="217.93" width="40.51" height="1.16" transform="translate(-71 210.45) rotate(-34.8)"/><rect class="cls-6" x="280.03" y="223.58" width="40.51" height="1.16" transform="translate(-74.22 211.46) rotate(-34.8)"/><rect class="cls-6" x="280.03" y="229.23" width="40.51" height="1.16" transform="translate(-77.45 212.47) rotate(-34.8)"/><rect class="cls-6" x="280.03" y="234.88" width="40.51" height="1.16" transform="translate(-80.67 213.48) rotate(-34.8)"/><rect class="cls-6" x="280.03" y="240.53" width="40.51" height="1.16" transform="matrix(0.82, -0.57, 0.57, 0.82, -83.9, 214.49)"/><rect class="cls-6" x="280.03" y="246.18" width="40.51" height="1.16" transform="translate(-87.12 215.5) rotate(-34.8)"/><rect class="cls-6" x="280.03" y="251.83" width="40.51" height="1.16" transform="matrix(0.82, -0.57, 0.57, 0.82, -90.35, 216.51)"/><rect class="cls-6" x="280.03" y="257.48" width="40.51" height="1.16" transform="matrix(0.82, -0.57, 0.57, 0.82, -93.57, 217.52)"/><rect class="cls-6" x="280.03" y="263.13" width="40.51" height="1.16" transform="translate(-96.8 218.53) rotate(-34.8)"/><rect class="cls-6" x="280.03" y="268.78" width="40.51" height="1.16" transform="matrix(0.82, -0.57, 0.57, 0.82, -100.02, 219.54)"/><rect class="cls-6" x="280.03" y="274.43" width="40.51" height="1.16" transform="translate(-103.25 220.55) rotate(-34.8)"/><rect class="cls-6" x="280.03" y="280.08" width="40.51" height="1.16" transform="matrix(0.82, -0.57, 0.57, 0.82, -106.47, 221.56)"/><rect class="cls-6" x="280.03" y="285.73" width="40.51" height="1.16" transform="translate(-109.7 222.58) rotate(-34.8)"/><rect class="cls-6" x="280.03" y="291.38" width="40.51" height="1.16" transform="translate(-112.92 223.59) rotate(-34.8)"/><rect class="cls-6" x="280.03" y="297.03" width="40.51" height="1.16" transform="translate(-116.14 224.6) rotate(-34.8)"/><polygon class="cls-19" points="343.97 218.53 330.68 201.3 330.68 347.33 343.97 347.33 343.97 218.53"/><path class="cls-6" d="M330.27,304.53h0a2.72,2.72,0,0,1-2.72-2.73V278.37a2.72,2.72,0,0,1,2.72-2.72h0a2.72,2.72,0,0,1,2.72,2.72V301.8A2.72,2.72,0,0,1,330.27,304.53Z"/><path class="cls-6" d="M330.27,268.36h0a2.72,2.72,0,0,1-2.72-2.72V242.21a2.72,2.72,0,0,1,2.72-2.72h0a2.72,2.72,0,0,1,2.72,2.72v23.43A2.72,2.72,0,0,1,330.27,268.36Z"/><polygon class="cls-32" points="316.91 189.74 300.23 201.33 300.23 347.33 316.91 347.33 316.91 189.74"/><polygon class="cls-19" points="537.03 280.44 515.11 253.39 515.11 346.85 537.03 346.85 537.03 280.44"/><rect class="cls-31" x="499.89" y="241.83" width="15.22" height="105.51"/><path class="cls-31" d="M482.78,237.47H507.6a3.64,3.64,0,0,1,3.64,3.64v.73a0,0,0,0,1,0,0H482.78a0,0,0,0,1,0,0v-4.36A0,0,0,0,1,482.78,237.47Z"/><rect class="cls-29" x="463.67" y="241.83" width="36.21" height="105.51"/><path class="cls-29" d="M471.19,237.47H496a0,0,0,0,1,0,0v4.36a0,0,0,0,1,0,0H467.56a0,0,0,0,1,0,0v-.73A3.64,3.64,0,0,1,471.19,237.47Z"/><rect class="cls-8" x="469.08" y="247.34" width="6.07" height="3.02" rx="0.86"/><rect class="cls-8" x="488.42" y="247.34" width="6.07" height="3.02" rx="0.86"/><rect class="cls-8" x="478.75" y="252.21" width="6.07" height="3.02" rx="0.86"/><rect class="cls-8" x="469.08" y="257.07" width="6.07" height="3.02" rx="0.86"/><rect class="cls-8" x="488.42" y="257.07" width="6.07" height="3.02" rx="0.86"/><rect class="cls-8" x="478.75" y="266.8" width="6.07" height="3.02" rx="0.86"/><rect class="cls-8" x="488.42" y="266.8" width="6.07" height="3.02" rx="0.86"/><rect class="cls-8" x="488.42" y="271.67" width="6.07" height="3.02" rx="0.86"/><rect class="cls-8" x="469.08" y="271.67" width="6.07" height="3.02" rx="0.86"/><rect class="cls-8" x="469.08" y="276.53" width="6.07" height="3.02" rx="0.86"/><rect class="cls-8" x="478.75" y="281.4" width="6.07" height="3.02" rx="0.86"/><rect class="cls-8" x="478.75" y="286.26" width="6.07" height="3.02" rx="0.86"/><rect class="cls-8" x="488.42" y="286.26" width="6.07" height="3.02" rx="0.86"/><rect class="cls-8" x="488.42" y="305.73" width="6.07" height="3.02" rx="0.86"/><rect class="cls-8" x="469.08" y="305.73" width="6.07" height="3.02" rx="0.86"/><rect class="cls-8" x="478.75" y="305.73" width="6.07" height="3.02" rx="0.86"/><rect class="cls-8" x="488.42" y="310.59" width="6.07" height="3.02" rx="0.86"/><rect class="cls-8" x="478.75" y="310.59" width="6.07" height="3.02" rx="0.86"/><rect class="cls-8" x="488.42" y="315.46" width="6.07" height="3.02" rx="0.86"/><rect class="cls-8" x="469.08" y="320.32" width="6.07" height="3.02" rx="0.86"/><rect class="cls-8" x="488.42" y="320.32" width="6.07" height="3.02" rx="0.86"/><rect class="cls-8" x="478.75" y="325.19" width="6.07" height="3.02" rx="0.86"/><rect class="cls-8" x="488.42" y="325.19" width="6.07" height="3.02" rx="0.86"/><rect class="cls-8" x="469.08" y="325.19" width="6.07" height="3.02" rx="0.86"/><rect class="cls-8" x="469.08" y="334.92" width="6.07" height="3.02" rx="0.86"/><rect class="cls-8" x="488.42" y="334.92" width="6.07" height="3.02" rx="0.86"/><rect class="cls-8" x="469.08" y="339.78" width="6.07" height="3.02" rx="0.86"/><rect class="cls-8" x="478.75" y="247.34" width="6.07" height="3.02" rx="0.86"/><rect class="cls-8" x="469.08" y="252.21" width="6.07" height="3.02" rx="0.86"/><rect class="cls-8" x="488.42" y="252.21" width="6.07" height="3.02" rx="0.86"/><rect class="cls-8" x="478.75" y="257.07" width="6.07" height="3.02" rx="0.86"/><rect class="cls-8" x="488.42" y="261.94" width="6.07" height="3.02" rx="0.86"/><rect class="cls-8" x="469.08" y="261.94" width="6.07" height="3.02" rx="0.86"/><rect class="cls-8" x="478.75" y="261.94" width="6.07" height="3.02" rx="0.86"/><rect class="cls-8" x="469.08" y="266.8" width="6.07" height="3.02" rx="0.86"/><rect class="cls-8" x="478.75" y="271.67" width="6.07" height="3.02" rx="0.86"/><rect class="cls-8" x="478.75" y="276.53" width="6.07" height="3.02" rx="0.86"/><rect class="cls-8" x="488.42" y="276.53" width="6.07" height="3.02" rx="0.86"/><rect class="cls-8" x="488.42" y="281.4" width="6.07" height="3.02" rx="0.86"/><rect class="cls-8" x="469.08" y="281.4" width="6.07" height="3.02" rx="0.86"/><rect class="cls-8" x="469.08" y="286.26" width="6.07" height="3.02" rx="0.86"/><rect class="cls-8" x="478.75" y="291.13" width="6.07" height="3.02" rx="0.86"/><rect class="cls-8" x="469.08" y="291.13" width="6.07" height="3.02" rx="0.86"/><rect class="cls-8" x="488.42" y="291.13" width="6.07" height="3.02" rx="0.86"/><rect class="cls-8" x="469.08" y="296" width="6.07" height="3.02" rx="0.86"/><rect class="cls-8" x="488.42" y="296" width="6.07" height="3.02" rx="0.86"/><rect class="cls-8" x="478.75" y="296" width="6.07" height="3.02" rx="0.86"/><rect class="cls-8" x="469.08" y="300.86" width="6.07" height="3.02" rx="0.86"/><rect class="cls-8" x="488.42" y="300.86" width="6.07" height="3.02" rx="0.86"/><rect class="cls-8" x="478.75" y="300.86" width="6.07" height="3.02" rx="0.86"/><rect class="cls-8" x="469.08" y="310.59" width="6.07" height="3.02" rx="0.86"/><rect class="cls-8" x="478.75" y="315.46" width="6.07" height="3.02" rx="0.86"/><rect class="cls-8" x="469.08" y="315.46" width="6.07" height="3.02" rx="0.86"/><rect class="cls-8" x="478.75" y="320.32" width="6.07" height="3.02" rx="0.86"/><rect class="cls-8" x="469.08" y="330.05" width="6.07" height="3.02" rx="0.86"/><rect class="cls-8" x="488.42" y="330.05" width="6.07" height="3.02" rx="0.86"/><rect class="cls-8" x="478.75" y="330.05" width="6.07" height="3.02" rx="0.86"/><rect class="cls-8" x="478.75" y="334.92" width="6.07" height="3.02" rx="0.86"/><rect class="cls-8" x="478.75" y="339.78" width="6.07" height="3.02" rx="0.86"/><rect class="cls-8" x="488.42" y="339.78" width="6.07" height="3.02" rx="0.86"/><polygon class="cls-33" points="499.89 241.66 463.68 241.66 499.89 293.11 499.89 241.66"/><rect class="cls-17" x="354.12" y="203.93" width="27.69" height="28.74"/><rect class="cls-34" x="350.8" y="203.93" width="31.01" height="25.74"/><rect class="cls-35" x="381.81" y="203.93" width="18.4" height="28.74" transform="translate(782.02 436.59) rotate(180)"/><rect class="cls-17" x="381.81" y="203.93" width="21.73" height="25.74" transform="translate(785.34 433.59) rotate(180)"/><rect class="cls-17" x="354.12" y="232.67" width="27.69" height="28.74"/><rect class="cls-34" x="350.8" y="232.67" width="31.01" height="25.74"/><polygon class="cls-34" points="351.95 233.82 381.81 233.82 381.81 232.67 350.8 232.67 350.8 258.41 351.95 258.41 351.95 233.82"/><rect class="cls-35" x="381.81" y="232.67" width="18.4" height="28.74" transform="translate(782.02 494.08) rotate(180)"/><rect class="cls-17" x="381.81" y="232.67" width="21.73" height="25.74" transform="translate(785.34 491.08) rotate(180)"/><rect class="cls-17" x="354.12" y="261.41" width="27.69" height="28.74"/><rect class="cls-34" x="350.8" y="261.41" width="31.01" height="25.74"/><rect class="cls-35" x="381.81" y="261.41" width="18.4" height="28.74" transform="translate(782.02 551.56) rotate(180)"/><rect class="cls-17" x="381.81" y="261.41" width="21.73" height="25.74" transform="translate(785.34 548.56) rotate(180)"/><rect class="cls-17" x="354.12" y="290.15" width="27.69" height="28.74"/><rect class="cls-34" x="350.8" y="290.15" width="31.01" height="25.74"/><polygon class="cls-34" points="351.95 291.31 381.81 291.31 381.81 290.15 350.8 290.15 350.8 315.9 351.95 315.9 351.95 291.31"/><rect class="cls-35" x="381.81" y="290.15" width="18.4" height="28.74" transform="translate(782.02 609.05) rotate(180)"/><rect class="cls-17" x="381.81" y="290.15" width="21.73" height="25.74" transform="translate(785.34 606.05) rotate(180)"/><path class="cls-35" d="M365.1,200.31h30.4a3.62,3.62,0,0,1,3.62,3.62v0a0,0,0,0,1,0,0h-34a0,0,0,0,1,0,0v-3.62A0,0,0,0,1,365.1,200.31Z"/><path class="cls-34" d="M358,200.31h20.37a0,0,0,0,1,0,0v3.62a0,0,0,0,1,0,0h-24a0,0,0,0,1,0,0v0A3.62,3.62,0,0,1,358,200.31Z"/><polygon class="cls-34" points="351.95 205.08 381.81 205.08 381.81 203.93 350.8 203.93 350.8 229.67 351.95 229.67 351.95 205.08"/><polygon class="cls-34" points="351.95 262.56 381.81 262.56 381.81 261.41 350.8 261.41 350.8 287.15 351.95 287.15 351.95 262.56"/><path class="cls-34" d="M357.48,200.31l19.25-12.38L396,200.31Z"/><path class="cls-17" d="M381.18,200.31l-4.45-12.38L396,200.31Z"/><path class="cls-17" d="M371.46,208.41a1.1,1.1,0,0,0-1.1,1.1v2.71a1.1,1.1,0,0,0,2.2,0v-2.71A1.1,1.1,0,0,0,371.46,208.41Zm-13.8,0a1.1,1.1,0,0,0-1.1,1.1v2.71a1.11,1.11,0,0,0,2.21,0v-2.71A1.11,1.11,0,0,0,357.66,208.41Zm17.28,0a1.1,1.1,0,0,0-1.1,1.1v2.71a1.1,1.1,0,1,0,2.2,0v-2.71A1.1,1.1,0,0,0,374.94,208.41Zm-6.93,0a1.1,1.1,0,0,0-1.1,1.1v2.71a1.1,1.1,0,0,0,2.2,0v-2.71A1.1,1.1,0,0,0,368,208.41Zm-6.9,0a1.1,1.1,0,0,0-1.1,1.1v2.71a1.1,1.1,0,1,0,2.2,0v-2.71A1.1,1.1,0,0,0,361.11,208.41Zm3.45,0a1.1,1.1,0,0,0-1.1,1.1v2.71a1.1,1.1,0,1,0,2.2,0v-2.71A1.1,1.1,0,0,0,364.56,208.41Zm-6.9,5.93a1.1,1.1,0,0,0-1.1,1.1v2.71a1.11,1.11,0,0,0,2.21,0v-2.71A1.11,1.11,0,0,0,357.66,214.34Zm3.45,0a1.1,1.1,0,0,0-1.1,1.1v2.71a1.1,1.1,0,1,0,2.2,0v-2.71A1.1,1.1,0,0,0,361.11,214.34Zm3.45,0a1.1,1.1,0,0,0-1.1,1.1v2.71a1.1,1.1,0,1,0,2.2,0v-2.71A1.1,1.1,0,0,0,364.56,214.34Zm6.9,0a1.1,1.1,0,0,0-1.1,1.1v2.71a1.1,1.1,0,0,0,2.2,0v-2.71A1.1,1.1,0,0,0,371.46,214.34Zm3.48,0a1.1,1.1,0,0,0-1.1,1.1v2.71a1.1,1.1,0,1,0,2.2,0v-2.71A1.1,1.1,0,0,0,374.94,214.34Zm-6.93,0a1.1,1.1,0,0,0-1.1,1.1v2.71a1.1,1.1,0,0,0,2.2,0v-2.71A1.1,1.1,0,0,0,368,214.34Zm-6.9,5.93a1.1,1.1,0,0,0-1.1,1.1v2.71a1.1,1.1,0,1,0,2.2,0v-2.71A1.1,1.1,0,0,0,361.11,220.27Zm-3.45,0a1.11,1.11,0,0,0-1.1,1.1v2.71a1.11,1.11,0,0,0,2.21,0v-2.71A1.11,1.11,0,0,0,357.66,220.27Zm17.28,0a1.1,1.1,0,0,0-1.1,1.1v2.71a1.1,1.1,0,1,0,2.2,0v-2.71A1.1,1.1,0,0,0,374.94,220.27Zm-10.38,0a1.1,1.1,0,0,0-1.1,1.1v2.71a1.1,1.1,0,1,0,2.2,0v-2.71A1.1,1.1,0,0,0,364.56,220.27Zm6.9,0a1.1,1.1,0,0,0-1.1,1.1v2.71a1.1,1.1,0,0,0,2.2,0v-2.71A1.1,1.1,0,0,0,371.46,220.27Zm-3.45,0a1.1,1.1,0,0,0-1.1,1.1v2.71a1.1,1.1,0,0,0,2.2,0v-2.71A1.1,1.1,0,0,0,368,220.27Z"/><path class="cls-17" d="M371.46,237.15a1.1,1.1,0,0,0-1.1,1.1V241a1.1,1.1,0,0,0,2.2,0v-2.71A1.1,1.1,0,0,0,371.46,237.15Zm-13.8,0a1.1,1.1,0,0,0-1.1,1.1V241a1.11,1.11,0,0,0,2.21,0v-2.71A1.11,1.11,0,0,0,357.66,237.15Zm17.28,0a1.1,1.1,0,0,0-1.1,1.1V241a1.1,1.1,0,1,0,2.2,0v-2.71A1.1,1.1,0,0,0,374.94,237.15Zm-6.93,0a1.1,1.1,0,0,0-1.1,1.1V241a1.1,1.1,0,0,0,2.2,0v-2.71A1.1,1.1,0,0,0,368,237.15Zm-6.9,0a1.1,1.1,0,0,0-1.1,1.1V241a1.1,1.1,0,1,0,2.2,0v-2.71A1.1,1.1,0,0,0,361.11,237.15Zm3.45,0a1.1,1.1,0,0,0-1.1,1.1V241a1.1,1.1,0,1,0,2.2,0v-2.71A1.1,1.1,0,0,0,364.56,237.15Zm-6.9,5.93a1.11,1.11,0,0,0-1.1,1.1v2.71a1.11,1.11,0,0,0,2.21,0v-2.71A1.11,1.11,0,0,0,357.66,243.08Zm3.45,0a1.1,1.1,0,0,0-1.1,1.1v2.71a1.1,1.1,0,0,0,2.2,0v-2.71A1.1,1.1,0,0,0,361.11,243.08Zm3.45,0a1.1,1.1,0,0,0-1.1,1.1v2.71a1.1,1.1,0,1,0,2.2,0v-2.71A1.1,1.1,0,0,0,364.56,243.08Zm6.9,0a1.1,1.1,0,0,0-1.1,1.1v2.71a1.1,1.1,0,0,0,2.2,0v-2.71A1.1,1.1,0,0,0,371.46,243.08Zm3.48,0a1.1,1.1,0,0,0-1.1,1.1v2.71a1.1,1.1,0,0,0,2.2,0v-2.71A1.1,1.1,0,0,0,374.94,243.08Zm-6.93,0a1.1,1.1,0,0,0-1.1,1.1v2.71a1.1,1.1,0,0,0,2.2,0v-2.71A1.1,1.1,0,0,0,368,243.08Zm-6.9,5.93a1.11,1.11,0,0,0-1.1,1.11v2.7a1.1,1.1,0,1,0,2.2,0v-2.7A1.11,1.11,0,0,0,361.11,249Zm-3.45,0a1.11,1.11,0,0,0-1.1,1.11v2.7a1.11,1.11,0,1,0,2.21,0v-2.7A1.11,1.11,0,0,0,357.66,249Zm17.28,0a1.11,1.11,0,0,0-1.1,1.11v2.7a1.1,1.1,0,1,0,2.2,0v-2.7A1.11,1.11,0,0,0,374.94,249Zm-10.38,0a1.11,1.11,0,0,0-1.1,1.11v2.7a1.1,1.1,0,1,0,2.2,0v-2.7A1.11,1.11,0,0,0,364.56,249Zm6.9,0a1.11,1.11,0,0,0-1.1,1.11v2.7a1.1,1.1,0,1,0,2.2,0v-2.7A1.11,1.11,0,0,0,371.46,249ZM368,249a1.11,1.11,0,0,0-1.1,1.11v2.7a1.1,1.1,0,1,0,2.2,0v-2.7A1.11,1.11,0,0,0,368,249Z"/><path class="cls-17" d="M371.46,265.89a1.1,1.1,0,0,0-1.1,1.1v2.71a1.1,1.1,0,0,0,2.2,0V267A1.1,1.1,0,0,0,371.46,265.89Zm-13.8,0a1.1,1.1,0,0,0-1.1,1.1v2.71a1.11,1.11,0,0,0,2.21,0V267A1.11,1.11,0,0,0,357.66,265.89Zm17.28,0a1.1,1.1,0,0,0-1.1,1.1v2.71a1.1,1.1,0,0,0,2.2,0V267A1.1,1.1,0,0,0,374.94,265.89Zm-6.93,0a1.1,1.1,0,0,0-1.1,1.1v2.71a1.1,1.1,0,0,0,2.2,0V267A1.1,1.1,0,0,0,368,265.89Zm-6.9,0A1.1,1.1,0,0,0,360,267v2.71a1.1,1.1,0,0,0,2.2,0V267A1.1,1.1,0,0,0,361.11,265.89Zm3.45,0a1.1,1.1,0,0,0-1.1,1.1v2.71a1.1,1.1,0,0,0,2.2,0V267A1.1,1.1,0,0,0,364.56,265.89Zm-6.9,5.93a1.11,1.11,0,0,0-1.1,1.11v2.7a1.11,1.11,0,1,0,2.21,0v-2.7A1.11,1.11,0,0,0,357.66,271.82Zm3.45,0a1.11,1.11,0,0,0-1.1,1.11v2.7a1.1,1.1,0,1,0,2.2,0v-2.7A1.11,1.11,0,0,0,361.11,271.82Zm3.45,0a1.11,1.11,0,0,0-1.1,1.11v2.7a1.1,1.1,0,1,0,2.2,0v-2.7A1.11,1.11,0,0,0,364.56,271.82Zm6.9,0a1.11,1.11,0,0,0-1.1,1.11v2.7a1.1,1.1,0,1,0,2.2,0v-2.7A1.11,1.11,0,0,0,371.46,271.82Zm3.48,0a1.11,1.11,0,0,0-1.1,1.11v2.7a1.1,1.1,0,1,0,2.2,0v-2.7A1.11,1.11,0,0,0,374.94,271.82Zm-6.93,0a1.11,1.11,0,0,0-1.1,1.11v2.7a1.1,1.1,0,1,0,2.2,0v-2.7A1.11,1.11,0,0,0,368,271.82Zm-6.9,5.94a1.1,1.1,0,0,0-1.1,1.1v2.71a1.1,1.1,0,0,0,2.2,0v-2.71A1.1,1.1,0,0,0,361.11,277.76Zm-3.45,0a1.1,1.1,0,0,0-1.1,1.1v2.71a1.11,1.11,0,0,0,2.21,0v-2.71A1.11,1.11,0,0,0,357.66,277.76Zm17.28,0a1.1,1.1,0,0,0-1.1,1.1v2.71a1.1,1.1,0,0,0,2.2,0v-2.71A1.1,1.1,0,0,0,374.94,277.76Zm-10.38,0a1.1,1.1,0,0,0-1.1,1.1v2.71a1.1,1.1,0,0,0,2.2,0v-2.71A1.1,1.1,0,0,0,364.56,277.76Zm6.9,0a1.1,1.1,0,0,0-1.1,1.1v2.71a1.1,1.1,0,0,0,2.2,0v-2.71A1.1,1.1,0,0,0,371.46,277.76Zm-3.45,0a1.1,1.1,0,0,0-1.1,1.1v2.71a1.1,1.1,0,0,0,2.2,0v-2.71A1.1,1.1,0,0,0,368,277.76Z"/><path class="cls-17" d="M371.46,294.64a1.1,1.1,0,0,0-1.1,1.1v2.71a1.1,1.1,0,0,0,2.2,0v-2.71A1.1,1.1,0,0,0,371.46,294.64Zm-13.8,0a1.1,1.1,0,0,0-1.1,1.1v2.71a1.11,1.11,0,0,0,2.21,0v-2.71A1.11,1.11,0,0,0,357.66,294.64Zm17.28,0a1.1,1.1,0,0,0-1.1,1.1v2.71a1.1,1.1,0,0,0,2.2,0v-2.71A1.1,1.1,0,0,0,374.94,294.64Zm-6.93,0a1.1,1.1,0,0,0-1.1,1.1v2.71a1.1,1.1,0,0,0,2.2,0v-2.71A1.1,1.1,0,0,0,368,294.64Zm-6.9,0a1.1,1.1,0,0,0-1.1,1.1v2.71a1.1,1.1,0,1,0,2.2,0v-2.71A1.1,1.1,0,0,0,361.11,294.64Zm3.45,0a1.1,1.1,0,0,0-1.1,1.1v2.71a1.1,1.1,0,0,0,2.2,0v-2.71A1.1,1.1,0,0,0,364.56,294.64Zm-6.9,5.93a1.1,1.1,0,0,0-1.1,1.1v2.71a1.11,1.11,0,0,0,2.21,0v-2.71A1.11,1.11,0,0,0,357.66,300.57Zm3.45,0a1.1,1.1,0,0,0-1.1,1.1v2.71a1.1,1.1,0,1,0,2.2,0v-2.71A1.1,1.1,0,0,0,361.11,300.57Zm3.45,0a1.1,1.1,0,0,0-1.1,1.1v2.71a1.1,1.1,0,0,0,2.2,0v-2.71A1.1,1.1,0,0,0,364.56,300.57Zm6.9,0a1.1,1.1,0,0,0-1.1,1.1v2.71a1.1,1.1,0,0,0,2.2,0v-2.71A1.1,1.1,0,0,0,371.46,300.57Zm3.48,0a1.1,1.1,0,0,0-1.1,1.1v2.71a1.1,1.1,0,0,0,2.2,0v-2.71A1.1,1.1,0,0,0,374.94,300.57Zm-6.93,0a1.1,1.1,0,0,0-1.1,1.1v2.71a1.1,1.1,0,0,0,2.2,0v-2.71A1.1,1.1,0,0,0,368,300.57Zm-6.9,5.93a1.1,1.1,0,0,0-1.1,1.1v2.71a1.1,1.1,0,1,0,2.2,0V307.6A1.1,1.1,0,0,0,361.11,306.5Zm-3.45,0a1.1,1.1,0,0,0-1.1,1.1v2.71a1.11,1.11,0,0,0,2.21,0V307.6A1.11,1.11,0,0,0,357.66,306.5Zm17.28,0a1.1,1.1,0,0,0-1.1,1.1v2.71a1.1,1.1,0,0,0,2.2,0V307.6A1.1,1.1,0,0,0,374.94,306.5Zm-10.38,0a1.1,1.1,0,0,0-1.1,1.1v2.71a1.1,1.1,0,0,0,2.2,0V307.6A1.1,1.1,0,0,0,364.56,306.5Zm6.9,0a1.1,1.1,0,0,0-1.1,1.1v2.71a1.1,1.1,0,0,0,2.2,0V307.6A1.1,1.1,0,0,0,371.46,306.5Zm-3.45,0a1.1,1.1,0,0,0-1.1,1.1v2.71a1.1,1.1,0,0,0,2.2,0V307.6A1.1,1.1,0,0,0,368,306.5Z"/><path class="cls-36" d="M351.91,203.93l7.19,25.74h22.71V203.93Zm29.9,107V290.15H376Zm-6.64-23.74h6.64V261.41H368Zm-8-28.74h14.67V232.67H359.94Z"/><rect class="cls-10" x="390.92" y="241.83" width="27.32" height="105.51"/><rect class="cls-10" x="394.54" y="239.65" width="23.7" height="2.18"/><polygon class="cls-19" points="457.33 280.7 436.27 253.39 436.27 330.05 457.33 330.05 457.33 280.7"/><rect class="cls-37" x="387.6" y="241.83" width="30.64" height="33.17"/><rect class="cls-38" x="418.24" y="241.83" width="18.4" height="105.51" transform="translate(854.89 589.16) rotate(180)"/><rect class="cls-8" x="418.24" y="239.65" width="14.79" height="2.18" transform="translate(851.27 481.48) rotate(180)"/><rect class="cls-8" x="418.24" y="241.83" width="21.73" height="33.17" transform="translate(858.21 516.83) rotate(180)"/><path class="cls-6" d="M431.39,248.39v20.05a1.43,1.43,0,0,0,2.85,0V248.39a1.43,1.43,0,1,0-2.85,0Zm-4.45,0v20.05a1.42,1.42,0,1,0,2.84,0V248.39a1.42,1.42,0,1,0-2.84,0Zm-4.46,0v20.05a1.43,1.43,0,0,0,2.85,0V248.39a1.43,1.43,0,1,0-2.85,0Z"/><rect class="cls-39" x="387.6" y="278" width="30.64" height="33.17"/><rect class="cls-38" x="418.24" y="278" width="21.73" height="33.17" transform="translate(858.21 589.16) rotate(180)"/><path class="cls-38" d="M431.39,284.56v20.05a1.43,1.43,0,0,0,2.85,0V284.56a1.43,1.43,0,1,0-2.85,0Zm-4.45,0v20.05a1.42,1.42,0,1,0,2.84,0V284.56a1.42,1.42,0,1,0-2.84,0Zm-4.46,0v20.05a1.43,1.43,0,0,0,2.85,0V284.56a1.43,1.43,0,1,0-2.85,0Z"/><rect class="cls-40" x="387.6" y="314.17" width="30.64" height="33.17"/><path class="cls-41" d="M394,247a1.42,1.42,0,0,0-1.42,1.43v20.05a1.42,1.42,0,0,0,2.84,0V248.39A1.43,1.43,0,0,0,394,247Zm4.46,0a1.43,1.43,0,0,0-1.43,1.43v20.05a1.43,1.43,0,0,0,2.85,0V248.39A1.43,1.43,0,0,0,398.47,247Zm4.45,0a1.43,1.43,0,0,0-1.42,1.43v20.05a1.42,1.42,0,1,0,2.84,0V248.39A1.42,1.42,0,0,0,402.92,247Zm4.46,0a1.43,1.43,0,0,0-1.43,1.43v20.05a1.43,1.43,0,0,0,2.85,0V248.39A1.43,1.43,0,0,0,407.38,247Zm4.45,0a1.43,1.43,0,0,0-1.42,1.43v20.05a1.43,1.43,0,0,0,2.85,0V248.39A1.43,1.43,0,0,0,411.83,247ZM394,283.13a1.42,1.42,0,0,0-1.42,1.43v20.05a1.42,1.42,0,1,0,2.84,0V284.56A1.43,1.43,0,0,0,394,283.13Zm4.46,0a1.43,1.43,0,0,0-1.43,1.43v20.05a1.43,1.43,0,0,0,2.85,0V284.56A1.43,1.43,0,0,0,398.47,283.13Zm4.45,0a1.43,1.43,0,0,0-1.42,1.43v20.05a1.42,1.42,0,1,0,2.84,0V284.56A1.42,1.42,0,0,0,402.92,283.13Zm4.46,0a1.43,1.43,0,0,0-1.43,1.43v20.05a1.43,1.43,0,0,0,2.85,0V284.56A1.43,1.43,0,0,0,407.38,283.13Zm4.45,0a1.43,1.43,0,0,0-1.42,1.43v20.05a1.43,1.43,0,0,0,2.85,0V284.56A1.43,1.43,0,0,0,411.83,283.13ZM394,319.3a1.42,1.42,0,0,0-1.42,1.42v20.06a1.42,1.42,0,0,0,2.84,0V320.72A1.43,1.43,0,0,0,394,319.3Zm17.82,0a1.43,1.43,0,0,0-1.42,1.42v20.06a1.43,1.43,0,0,0,2.85,0V320.72A1.43,1.43,0,0,0,411.83,319.3Zm-13.36,0a1.43,1.43,0,0,0-1.43,1.42v20.06a1.43,1.43,0,0,0,2.85,0V320.72A1.43,1.43,0,0,0,398.47,319.3Zm4.45,0a1.43,1.43,0,0,0-1.42,1.42v20.06a1.42,1.42,0,0,0,2.84,0V320.72A1.42,1.42,0,0,0,402.92,319.3Zm4.46,0a1.43,1.43,0,0,0-1.43,1.42v20.06a1.43,1.43,0,0,0,2.85,0V320.72A1.43,1.43,0,0,0,407.38,319.3Z"/><rect class="cls-38" x="418.24" y="314.17" width="21.73" height="33.17" transform="translate(858.21 661.5) rotate(180)"/><path class="cls-38" d="M431.39,320.72v20.06a1.43,1.43,0,0,0,2.85,0V320.72a1.43,1.43,0,0,0-2.85,0Zm-4.45,0v20.06a1.42,1.42,0,0,0,2.84,0V320.72a1.42,1.42,0,1,0-2.84,0Zm-4.46,0v20.06a1.43,1.43,0,0,0,2.85,0V320.72a1.43,1.43,0,0,0-2.85,0Z"/><path class="cls-42" d="M394.54,239.65l19.24-12.38L433,239.65Z"/><path class="cls-41" d="M418.24,239.65l-4.46-12.38L433,239.65Z"/><rect class="cls-31" x="208.86" y="243.83" width="11.14" height="103.51"/><rect class="cls-31" x="190.77" y="234.66" width="25.2" height="9.16"/><rect class="cls-29" x="175.6" y="243.83" width="33.27" height="103.51"/><rect class="cls-29" x="179.63" y="234.66" width="25.2" height="9.16"/><rect class="cls-31" x="192.33" y="230.08" width="19.59" height="4.58"/><rect class="cls-31" x="183.67" y="230.08" width="19.59" height="4.58"/><path class="cls-6" d="M178.19,247.54v4.16h30.67v-4.16Zm0,12.47h30.67v-4.15H178.19Zm0,8.32h30.67v-4.16H178.19Zm0,8.32h30.67v-4.16H178.19Zm0,8.31h30.67V280.8H178.19Zm0,8.32h30.67v-4.16H178.19Zm0,8.32h30.67v-4.16H178.19Zm0,8.31h30.67v-4.16H178.19Zm0,8.32h30.67v-4.16H178.19Zm0,8.31h30.67v-4.15H178.19Zm0,8.32h30.67V330.7H178.19Zm0,8.32h30.67V339H178.19Z"/><path class="cls-29" d="M183.67,230.08l14.13-24.25,14.13,24.25Z"/><path class="cls-31" d="M201.07,230.08l-3.27-24.25,14.13,24.25Z"/><polygon class="cls-43" points="193.43 230.1 197.8 205.83 183.67 230.08 183.67 234.66 179.63 234.66 179.63 243.83 175.59 243.83 175.59 347.33 193.43 347.33 193.43 230.1"/><rect class="cls-44" x="159.02" y="260.35" width="20.23" height="86.98"/><path class="cls-44" d="M146.25,256h24.81a3.64,3.64,0,0,1,3.64,3.64v.73a0,0,0,0,1,0,0H146.25a0,0,0,0,1,0,0V256A0,0,0,0,1,146.25,256Z"/><rect class="cls-6" x="122.81" y="260.35" width="36.21" height="86.98"/><rect class="cls-8" x="125.04" y="262.58" width="31.76" height="84.76"/><rect class="cls-44" x="125.04" y="262.58" width="1.65" height="81.04"/><path class="cls-6" d="M130.32,256h24.81a0,0,0,0,1,0,0v4.36a0,0,0,0,1,0,0H126.69a0,0,0,0,1,0,0v-.73A3.64,3.64,0,0,1,130.32,256Z"/><path class="cls-7" d="M131.12,343.62h0a1.69,1.69,0,0,0,1.69-1.68V267a1.69,1.69,0,0,0-1.69-1.68h0a1.68,1.68,0,0,0-1.68,1.68v75A1.68,1.68,0,0,0,131.12,343.62Zm5.34,0h0a1.68,1.68,0,0,0,1.68-1.68V267a1.68,1.68,0,0,0-1.68-1.68h0a1.69,1.69,0,0,0-1.69,1.68v75A1.69,1.69,0,0,0,136.46,343.62Zm5.33,0h0a1.69,1.69,0,0,0,1.69-1.68V267a1.69,1.69,0,0,0-1.69-1.68h0a1.68,1.68,0,0,0-1.68,1.68v75A1.68,1.68,0,0,0,141.79,343.62Zm5.34,0h0a1.69,1.69,0,0,0,1.69-1.68V267a1.69,1.69,0,0,0-1.69-1.68h0a1.68,1.68,0,0,0-1.68,1.68v75A1.68,1.68,0,0,0,147.13,343.62ZM150.78,267v75a1.69,1.69,0,0,0,1.69,1.68h0a1.68,1.68,0,0,0,1.68-1.68V267a1.68,1.68,0,0,0-1.68-1.68h0A1.69,1.69,0,0,0,150.78,267Z"/><polygon class="cls-19" points="196.07 291.5 179.24 270.73 179.24 347.33 196.07 347.33 196.07 291.5"/><polygon class="cls-19" points="233.29 261.06 220 243.83 220 321.18 233.29 321.18 233.29 261.06"/><rect class="cls-41" x="256.21" y="269.98" width="9.44" height="77.36"/><path class="cls-41" d="M239.11,265.62h19a3.64,3.64,0,0,1,3.64,3.64V270a0,0,0,0,1,0,0H239.11a0,0,0,0,1,0,0v-4.36A0,0,0,0,1,239.11,265.62Z"/><rect class="cls-6" x="220" y="269.98" width="36.21" height="77.36"/><rect class="cls-44" x="222.23" y="272.21" width="31.76" height="71.41"/><rect class="cls-44" x="222.23" y="272.21" width="1.65" height="71.41"/><path class="cls-6" d="M227.52,265.62h24.81a0,0,0,0,1,0,0V270a0,0,0,0,1,0,0H223.88a0,0,0,0,1,0,0v-.73A3.64,3.64,0,0,1,227.52,265.62Z"/><path class="cls-45" d="M242.86,300.52v1.62a1.07,1.07,0,0,1-1.08,1.07h-5.42a1.07,1.07,0,0,1-1.08-1.07v-1.62a1.08,1.08,0,0,1,1.08-1.08h5.42A1.08,1.08,0,0,1,242.86,300.52Zm-1.08-10.81h-5.42a1.08,1.08,0,0,0-1.08,1.08v1.61a1.08,1.08,0,0,0,1.08,1.08h5.42a1.08,1.08,0,0,0,1.08-1.08v-1.61A1.08,1.08,0,0,0,241.78,289.71Zm-9.67,0h-5.42a1.08,1.08,0,0,0-1.08,1.08v1.61a1.08,1.08,0,0,0,1.08,1.08h5.42a1.08,1.08,0,0,0,1.08-1.08v-1.61A1.08,1.08,0,0,0,232.11,289.71Zm0,9.73h-5.42a1.08,1.08,0,0,0-1.08,1.08v1.62a1.07,1.07,0,0,0,1.08,1.07h5.42a1.07,1.07,0,0,0,1.08-1.07v-1.62A1.08,1.08,0,0,0,232.11,299.44Zm19.34,38.93H246a1.07,1.07,0,0,0-1.08,1.07v1.62a1.08,1.08,0,0,0,1.08,1.08h5.42a1.08,1.08,0,0,0,1.08-1.08v-1.62A1.07,1.07,0,0,0,251.45,338.37ZM241.78,280h-5.42a1.08,1.08,0,0,0-1.08,1.08v1.61a1.08,1.08,0,0,0,1.08,1.08h5.42a1.08,1.08,0,0,0,1.08-1.08v-1.61A1.08,1.08,0,0,0,241.78,280Zm0,58.39h-5.42a1.07,1.07,0,0,0-1.08,1.07v1.62a1.08,1.08,0,0,0,1.08,1.08h5.42a1.08,1.08,0,0,0,1.08-1.08v-1.62A1.07,1.07,0,0,0,241.78,338.37ZM232.11,280h-5.42a1.08,1.08,0,0,0-1.08,1.08v1.61a1.08,1.08,0,0,0,1.08,1.08h5.42a1.08,1.08,0,0,0,1.08-1.08v-1.61A1.08,1.08,0,0,0,232.11,280Zm9.67,38.92h-5.42a1.08,1.08,0,0,0-1.08,1.08v1.62a1.08,1.08,0,0,0,1.08,1.08h5.42a1.08,1.08,0,0,0,1.08-1.08V320A1.08,1.08,0,0,0,241.78,318.9Zm-9.67-9.73h-5.42a1.08,1.08,0,0,0-1.08,1.08v1.62a1.07,1.07,0,0,0,1.08,1.07h5.42a1.07,1.07,0,0,0,1.08-1.07v-1.62A1.08,1.08,0,0,0,232.11,309.17Zm9.67,0h-5.42a1.08,1.08,0,0,0-1.08,1.08v1.62a1.07,1.07,0,0,0,1.08,1.07h5.42a1.07,1.07,0,0,0,1.08-1.07v-1.62A1.08,1.08,0,0,0,241.78,309.17Zm0,19.46h-5.42a1.08,1.08,0,0,0-1.08,1.08v1.62a1.08,1.08,0,0,0,1.08,1.08h5.42a1.08,1.08,0,0,0,1.08-1.08v-1.62A1.08,1.08,0,0,0,241.78,328.63Zm9.67-38.92H246a1.08,1.08,0,0,0-1.08,1.08v1.61a1.08,1.08,0,0,0,1.08,1.08h5.42a1.08,1.08,0,0,0,1.08-1.08v-1.61A1.08,1.08,0,0,0,251.45,289.71Zm-19.34,38.92h-5.42a1.08,1.08,0,0,0-1.08,1.08v1.62a1.08,1.08,0,0,0,1.08,1.08h5.42a1.08,1.08,0,0,0,1.08-1.08v-1.62A1.08,1.08,0,0,0,232.11,328.63Zm19.34-29.19H246a1.08,1.08,0,0,0-1.08,1.08v1.62a1.07,1.07,0,0,0,1.08,1.07h5.42a1.07,1.07,0,0,0,1.08-1.07v-1.62A1.08,1.08,0,0,0,251.45,299.44Zm-19.34,38.93h-5.42a1.07,1.07,0,0,0-1.08,1.07v1.62a1.08,1.08,0,0,0,1.08,1.08h5.42a1.08,1.08,0,0,0,1.08-1.08v-1.62A1.07,1.07,0,0,0,232.11,338.37ZM251.45,280H246a1.08,1.08,0,0,0-1.08,1.08v1.61a1.08,1.08,0,0,0,1.08,1.08h5.42a1.08,1.08,0,0,0,1.08-1.08v-1.61A1.08,1.08,0,0,0,251.45,280ZM232.11,318.9h-5.42a1.08,1.08,0,0,0-1.08,1.08v1.62a1.08,1.08,0,0,0,1.08,1.08h5.42a1.08,1.08,0,0,0,1.08-1.08V320A1.08,1.08,0,0,0,232.11,318.9Zm19.34,9.73H246a1.08,1.08,0,0,0-1.08,1.08v1.62a1.08,1.08,0,0,0,1.08,1.08h5.42a1.08,1.08,0,0,0,1.08-1.08v-1.62A1.08,1.08,0,0,0,251.45,328.63Zm0-19.46H246a1.08,1.08,0,0,0-1.08,1.08v1.62a1.07,1.07,0,0,0,1.08,1.07h5.42a1.07,1.07,0,0,0,1.08-1.07v-1.62A1.08,1.08,0,0,0,251.45,309.17Zm0,9.73H246A1.08,1.08,0,0,0,245,320v1.62a1.08,1.08,0,0,0,1.08,1.08h5.42a1.08,1.08,0,0,0,1.08-1.08V320A1.08,1.08,0,0,0,251.45,318.9Zm-19.34-14.59h-5.42a1.08,1.08,0,0,0-1.08,1.08V307a1.08,1.08,0,0,0,1.08,1.08h5.42a1.08,1.08,0,0,0,1.08-1.08v-1.61A1.08,1.08,0,0,0,232.11,304.31Zm0-29.2h-5.42a1.08,1.08,0,0,0-1.08,1.08v1.62a1.08,1.08,0,0,0,1.08,1.08h5.42a1.08,1.08,0,0,0,1.08-1.08v-1.62A1.08,1.08,0,0,0,232.11,275.11Zm0,38.93h-5.42a1.08,1.08,0,0,0-1.08,1.08v1.61a1.08,1.08,0,0,0,1.08,1.08h5.42a1.08,1.08,0,0,0,1.08-1.08v-1.61A1.08,1.08,0,0,0,232.11,314Zm0-29.2h-5.42a1.08,1.08,0,0,0-1.08,1.08v1.62a1.08,1.08,0,0,0,1.08,1.08h5.42a1.08,1.08,0,0,0,1.08-1.08v-1.62A1.08,1.08,0,0,0,232.11,284.84Zm0,38.93h-5.42a1.08,1.08,0,0,0-1.08,1.08v1.61a1.08,1.08,0,0,0,1.08,1.08h5.42a1.08,1.08,0,0,0,1.08-1.08v-1.61A1.08,1.08,0,0,0,232.11,323.77Zm0-29.19h-5.42a1.07,1.07,0,0,0-1.08,1.07v1.62a1.08,1.08,0,0,0,1.08,1.08h5.42a1.08,1.08,0,0,0,1.08-1.08v-1.62A1.07,1.07,0,0,0,232.11,294.58Zm0,38.92h-5.42a1.08,1.08,0,0,0-1.08,1.08v1.61a1.08,1.08,0,0,0,1.08,1.08h5.42a1.08,1.08,0,0,0,1.08-1.08v-1.61A1.08,1.08,0,0,0,232.11,333.5ZM241.78,314h-5.42a1.08,1.08,0,0,0-1.08,1.08v1.61a1.08,1.08,0,0,0,1.08,1.08h5.42a1.08,1.08,0,0,0,1.08-1.08v-1.61A1.08,1.08,0,0,0,241.78,314Zm9.67-9.73H246a1.08,1.08,0,0,0-1.08,1.08V307a1.08,1.08,0,0,0,1.08,1.08h5.42a1.08,1.08,0,0,0,1.08-1.08v-1.61A1.08,1.08,0,0,0,251.45,304.31Zm0-9.73H246a1.07,1.07,0,0,0-1.08,1.07v1.62a1.08,1.08,0,0,0,1.08,1.08h5.42a1.08,1.08,0,0,0,1.08-1.08v-1.62A1.07,1.07,0,0,0,251.45,294.58Zm0,19.46H246a1.08,1.08,0,0,0-1.08,1.08v1.61a1.08,1.08,0,0,0,1.08,1.08h5.42a1.08,1.08,0,0,0,1.08-1.08v-1.61A1.08,1.08,0,0,0,251.45,314Zm-9.67,19.46h-5.42a1.08,1.08,0,0,0-1.08,1.08v1.61a1.08,1.08,0,0,0,1.08,1.08h5.42a1.08,1.08,0,0,0,1.08-1.08v-1.61A1.08,1.08,0,0,0,241.78,333.5Zm9.67-58.39H246a1.08,1.08,0,0,0-1.08,1.08v1.62a1.08,1.08,0,0,0,1.08,1.08h5.42a1.08,1.08,0,0,0,1.08-1.08v-1.62A1.08,1.08,0,0,0,251.45,275.11Zm0,9.73H246a1.08,1.08,0,0,0-1.08,1.08v1.62a1.08,1.08,0,0,0,1.08,1.08h5.42a1.08,1.08,0,0,0,1.08-1.08v-1.62A1.08,1.08,0,0,0,251.45,284.84Zm0,38.93H246a1.08,1.08,0,0,0-1.08,1.08v1.61a1.08,1.08,0,0,0,1.08,1.08h5.42a1.08,1.08,0,0,0,1.08-1.08v-1.61A1.08,1.08,0,0,0,251.45,323.77Zm-9.67-29.19h-5.42a1.07,1.07,0,0,0-1.08,1.07v1.62a1.08,1.08,0,0,0,1.08,1.08h5.42a1.08,1.08,0,0,0,1.08-1.08v-1.62A1.07,1.07,0,0,0,241.78,294.58Zm0,9.73h-5.42a1.08,1.08,0,0,0-1.08,1.08V307a1.08,1.08,0,0,0,1.08,1.08h5.42a1.08,1.08,0,0,0,1.08-1.08v-1.61A1.08,1.08,0,0,0,241.78,304.31Zm0,19.46h-5.42a1.08,1.08,0,0,0-1.08,1.08v1.61a1.08,1.08,0,0,0,1.08,1.08h5.42a1.08,1.08,0,0,0,1.08-1.08v-1.61A1.08,1.08,0,0,0,241.78,323.77Zm9.67,9.73H246a1.08,1.08,0,0,0-1.08,1.08v1.61a1.08,1.08,0,0,0,1.08,1.08h5.42a1.08,1.08,0,0,0,1.08-1.08v-1.61A1.08,1.08,0,0,0,251.45,333.5Zm-9.67-58.39h-5.42a1.08,1.08,0,0,0-1.08,1.08v1.62a1.08,1.08,0,0,0,1.08,1.08h5.42a1.08,1.08,0,0,0,1.08-1.08v-1.62A1.08,1.08,0,0,0,241.78,275.11Zm0,9.73h-5.42a1.08,1.08,0,0,0-1.08,1.08v1.62a1.08,1.08,0,0,0,1.08,1.08h5.42a1.08,1.08,0,0,0,1.08-1.08v-1.62A1.08,1.08,0,0,0,241.78,284.84Z"/><path class="cls-6" d="M265.37,329.88h0a2.72,2.72,0,0,1-2.72-2.72V303.73a2.72,2.72,0,0,1,2.72-2.72h0a2.72,2.72,0,0,1,2.72,2.72v23.43A2.72,2.72,0,0,1,265.37,329.88Z"/><rect class="cls-44" x="425.63" y="266.9" width="9.59" height="21.53" transform="translate(860.84 555.33) rotate(180)"/><polygon class="cls-6" points="425.63 276.96 425.63 266.9 412.34 266.9 412.34 288.43 438.71 288.43 438.71 276.96 425.63 276.96"/><rect class="cls-44" x="438.71" y="276.96" width="9.59" height="11.47" transform="translate(887 565.39) rotate(180)"/><rect class="cls-6" x="402.71" y="287.4" width="49.04" height="59.93"/><rect class="cls-7" x="399.67" y="300.07" width="55.12" height="39.41" transform="translate(747 -107.45) rotate(90)"/><rect class="cls-44" x="451.75" y="287.4" width="19.31" height="59.93" transform="translate(922.8 634.74) rotate(180)"/><path class="cls-8" d="M434.29,304.87h3.14v-7.43h-3.14Zm4.95-7.43v7.43h3.14v-7.43Zm-4.95,17.45h3.14v-7.44h-3.14Zm4.95,0h3.14v-7.44h-3.14Zm-4.95,10h3.14v-7.44h-3.14Zm4.95,0h3.14v-7.44h-3.14Zm-4.95,10h3.14v-7.44h-3.14Zm4.95,0h3.14v-7.44h-3.14Zm-4.95,10h3.14v-7.44h-3.14Zm4.95,0h3.14v-7.44h-3.14Z"/><rect class="cls-8" x="417.15" y="281.77" width="16.74" height="5.63"/><polygon class="cls-19" points="484.35 347.33 484.35 316.2 471.06 298.96 471.06 347.33 484.35 347.33"/><rect class="cls-46" x="458.54" y="319.74" width="57.37" height="27.6"/><rect class="cls-47" x="515.74" y="319.74" width="13.29" height="27.6"/><rect class="cls-6" x="458.71" y="341.73" width="57.03" height="0.58"/><rect class="cls-6" x="458.71" y="338.34" width="57.03" height="0.58"/><rect class="cls-6" x="458.71" y="334.94" width="57.03" height="0.58"/><rect class="cls-6" x="458.71" y="331.55" width="57.03" height="0.58"/><rect class="cls-6" x="458.71" y="328.15" width="57.03" height="0.58"/><rect class="cls-6" x="458.71" y="324.76" width="57.03" height="0.58"/><rect class="cls-6" x="506.17" y="301.24" width="5.44" height="26.12" rx="2.72" transform="translate(194.59 823.19) rotate(-90)"/><rect class="cls-6" x="308.58" y="310.42" width="47.09" height="6.39"/><rect class="cls-44" x="355.55" y="310.42" width="16.97" height="6.39"/><rect class="cls-6" x="293.43" y="314.17" width="69.4" height="33.17"/><rect class="cls-7" x="314.44" y="304.72" width="27.39" height="57.84" transform="translate(661.77 5.51) rotate(90)"/><rect class="cls-44" x="362.66" y="314.17" width="25.01" height="33.17"/><path class="cls-48" d="M303.34,333.64,307.47,320h-8.26Zm8.27,0L315.74,320h-8.27Zm8.26,0L324,320h-8.26Zm8.26,0L332.26,320H324Zm8.26,0L340.53,320h-8.27Zm8.27,0L348.79,320h-8.26ZM348.79,320l4.13,13.69L357.05,320Z"/><path class="cls-8" d="M299.21,347.33h8.26l-4.13-13.69Zm8.26,0h8.27l-4.13-13.69Zm8.27,0H324l-4.13-13.69Zm8.26,0h8.26l-4.13-13.69Zm8.26,0h8.27l-4.14-13.69Zm8.27,0h8.26l-4.13-13.69Zm16.52,0-4.13-13.69-4.13,13.69Z"/><rect class="cls-49" x="163.47" y="297.36" width="24.03" height="49.98"/><rect class="cls-6" x="183.68" y="303.14" width="0.58" height="44.09"/><rect class="cls-6" x="180.28" y="303.14" width="0.58" height="44.09"/><rect class="cls-6" x="176.89" y="303.14" width="0.58" height="44.09"/><rect class="cls-6" x="173.49" y="303.14" width="0.58" height="44.09"/><rect class="cls-6" x="170.1" y="303.14" width="0.58" height="44.09"/><rect class="cls-6" x="166.7" y="303.14" width="0.58" height="44.09"/><rect class="cls-50" x="187.3" y="297.36" width="16.2" height="49.98"/><polygon class="cls-51" points="163.47 335.77 163.47 297.36 187.49 297.36 163.47 335.77"/></g></g></g></svg>